<?xml version="1.0" standalone="no"?>
<!DOCTYPE svg PUBLIC "-//W3C//DTD SVG 1.1//EN" "http://www.w3.org/Graphics/SVG/1.1/DTD/svg11.dtd">
<svg xmlns="http://www.w3.org/2000/svg">
<metadata>Generated by Fontastic.me</metadata>
<defs>
<font id="material-icon-font" horiz-adv-x="512">
<font-face font-family="material-icon-font" units-per-em="512" ascent="480" descent="-32"/>
<missing-glyph horiz-adv-x="512" />

<glyph unicode="&#57344;" d="M469 390l-98 84-28-32 99-84z m-300 49l-28 32-98-81 27-32z m98-98l-32 0 0-128 100-62 17 26-85 51z m-11 86c-107 0-192-86-192-192 0-107 85-192 192-192 107 0 192 85 192 192 0 106-85 192-192 192z m0-342c-83 0-149 66-149 150 0 83 66 149 149 149 83 0 149-66 149-149 0-84-66-150-149-150z"/>
<glyph unicode="&#57345;" d="M256 469c-117 0-213-96-213-213 0-117 96-213 213-213 117 0 213 96 213 213 0 117-96 213-213 213z m0-384c-94 0-171 77-171 171 0 94 77 171 171 171 94 0 171-77 171-171 0-94-77-171-171-171z m11 278l-32 0 0-128 111-69 17 28-96 58z"/>
<glyph unicode="&#57346;" d="M256 469c23 0 43-19 43-42 0-24-20-43-43-43-23 0-43 19-43 43 0 23 20 42 43 42z m192-149l-128 0 0-277-43 0 0 128-42 0 0-128-43 0 0 277-128 0 0 43 384 0z"/>
<glyph unicode="&#57347;" d="M64 405l0-298c0-24 19-43 43-43l298 0c24 0 43 19 43 43l0 298c0 24-19 43-43 43l-298 0c-24 0-43-19-43-43z m256-85c0-36-28-64-64-64-36 0-64 28-64 64 0 36 28 64 64 64 36 0 64-28 64-64z m-192-171c0 43 85 66 128 66 43 0 128-23 128-66l0-21-256 0z"/>
<glyph unicode="&#57348;" d="M256 469c-117 0-213-96-213-213 0-117 96-213 213-213 117 0 213 96 213 213 0 117-96 213-213 213z m0-64c36 0 64-27 64-64 0-36-28-64-64-64-36 0-64 28-64 64 0 37 28 64 64 64z m0-303c-53 0-100 28-128 69 0 42 85 66 128 66 43 0 128-24 128-66-28-41-75-69-128-69z"/>
<glyph unicode="&#57349;" d="M107 171c0-84 66-150 149-150 83 0 149 66 149 150l0 85-298 0z m236 247l45 45-17 17-49-49c-19 11-43 17-66 17-23 0-47-6-66-15l-49 49-17-19 45-45c-39-25-62-70-62-119l0-22 298 0 0 22c0 49-23 94-62 119z m-151-98c-13 0-21 9-21 21 0 13 8 22 21 22 13 0 21-9 21-22 0-12-8-21-21-21z m128 0c-13 0-21 9-21 21 0 13 8 22 21 22 13 0 21-9 21-22 0-12-8-21-21-21z"/>
<glyph unicode="&#57350;" d="M405 235l-128 0 0-128-42 0 0 128-128 0 0 42 128 0 0 128 42 0 0-128 128 0z"/>
<glyph unicode="&#57351;" d="M169 439l-28 32-98-81 27-32z m300-49l-98 84-28-32 99-84z m-213 37c-107 0-192-86-192-192 0-107 85-192 192-192 107 0 192 85 192 192 0 106-85 192-192 192z m0-342c-83 0-149 66-149 150 0 83 66 149 149 149 83 0 149-66 149-149 0-84-66-150-149-150z m21 235l-42 0 0-64-64 0 0-43 64 0 0-64 42 0 0 64 64 0 0 43-64 0z"/>
<glyph unicode="&#57352;" d="M405 448l-298 0c-24 0-43-19-43-43l0-298c0-24 19-43 43-43l298 0c24 0 43 19 43 43l0 298c0 24-19 43-43 43z m-42-213l-86 0 0-86-42 0 0 86-86 0 0 42 86 0 0 86 42 0 0-86 86 0z"/>
<glyph unicode="&#57353;" d="M256 469c-117 0-213-96-213-213 0-117 96-213 213-213 117 0 213 96 213 213 0 117-96 213-213 213z m107-234l-86 0 0-86-42 0 0 86-86 0 0 42 86 0 0 86 42 0 0-86 86 0z"/>
<glyph unicode="&#57354;" d="M277 363l-42 0 0-86-86 0 0-42 86 0 0-86 42 0 0 86 86 0 0 42-86 0z m-21 106c-117 0-213-96-213-213 0-117 96-213 213-213 117 0 213 96 213 213 0 117-96 213-213 213z m0-384c-94 0-171 77-171 171 0 94 77 171 171 171 94 0 171-77 171-171 0-94-77-171-171-171z"/>
<glyph unicode="&#57355;" d="M277 320l0 117c0 17-15 32-32 32-17 0-32-15-32-32l0-79 167-166 68-21 0 42z m-213 79l107-107-128-79 0-42 170 53 0-117-42-32 0-32 74 21 75-21 0 32-43 32 0 79 122-122 28 28-335 335z"/>
<glyph unicode="&#57356;" d="M448 171l0 42-171 107 0 117c0 17-15 32-32 32-17 0-32-15-32-32l0-117-170-107 0-42 170 53 0-117-42-32 0-32 74 21 75-21 0 32-43 32 0 117z"/>
<glyph unicode="&#57357;" d="M128 128c0-13 9-21 21-21l22 0 0-75c0-17 15-32 32-32 17 0 32 15 32 32l0 75 42 0 0-75c0-17 15-32 32-32 17 0 32 15 32 32l0 75 22 0c12 0 21 8 21 21l0 213-256 0z m-53 213c-17 0-32-15-32-32l0-149c0-17 15-32 32-32 17 0 32 15 32 32l0 149c0 17-15 32-32 32z m362 0c-17 0-32-15-32-32l0-149c0-17 15-32 32-32 17 0 32 15 32 32l0 149c0 17-15 32-32 32z m-106 124l27 28c5 4 5 10 0 15-4 4-10 4-15 0l-32-32c-14 10-34 15-55 15-21 0-41-5-58-13l-29 32c-5 2-13 2-18 0-2-4-2-13 0-17l28-28c-30-23-51-60-51-102l256 0c0 42-21 81-53 102z m-118-60l-21 0 0 22 21 0z m107 0l-21 0 0 22 21 0z"/>
<glyph unicode="&#57358;" d="M85 341l86 0 0 86-86 0z m128-256l86 0 0 86-86 0z m-128 0l86 0 0 86-86 0z m0 128l86 0 0 86-86 0z m128 0l86 0 0 86-86 0z m128 214l0-86 86 0 0 86z m-128-86l86 0 0 86-86 0z m128-128l86 0 0 86-86 0z m0-128l86 0 0 86-86 0z"/>
<glyph unicode="&#57359;" d="M437 401l-30 36c-4 7-12 11-23 11l-256 0c-11 0-19-4-26-11l-27-36c-7-8-11-17-11-28l0-266c0-24 19-43 43-43l298 0c24 0 43 19 43 43l0 266c0 11-4 20-11 28z m-181-262l-117 117 74 0 0 43 86 0 0-43 74 0z m-147 266l17 22 256 0 19-22z"/>
<glyph unicode="&#57360;" d="M427 277l-261 0 120 120-30 30-171-171 171-171 30 30-120 120 261 0z"/>
<glyph unicode="&#57361;" d="M149 299l107-107 107 107z"/>
<glyph unicode="&#57362;" d="M256 469c-117 0-213-96-213-213 0-117 96-213 213-213 117 0 213 96 213 213 0 117-96 213-213 213z m0-256l-85 86 170 0z"/>
<glyph unicode="&#57363;" d="M149 213l107 107 107-107z"/>
<glyph unicode="&#57364;" d="M256 427l-30-30 120-120-261 0 0-42 261 0-120-120 30-30 171 171z"/>
<glyph unicode="&#57365;" d="M160 128c-64 0-117 53-117 117 0 64 53 118 117 118l224 0c47 0 85-39 85-86 0-47-38-85-85-85l-181 0c-30 0-54 23-54 53 0 30 24 54 54 54l160 0 0-32-160 0c-13 0-22-9-22-22 0-12 9-21 22-21l181 0c30 0 53 23 53 53 0 30-23 54-53 54l-224 0c-47 0-85-39-85-86 0-47 38-85 85-85l203 0 0-32z"/>
<glyph unicode="&#57366;" d="M160 393l53-30-30 53 30 53-53-30-53 30 30-53-30-53z m256-210l-53 30 30-53-30-53 53 30 53-30-30 53 30 53z m53 286l-53-30-53 30 30-53-30-53 53 30 53-30-30 53z m-162-113c-8 9-21 9-30 0l-249-249c-9-9-9-22 0-30l49-49c8-9 21-9 30 0l249 249c9 9 9 22 0 30z m-23-117l-45 45 51 51 45-45z"/>
<glyph unicode="&#57367;" d="M469 448l-320 0c-15 0-25-6-34-19l-115-173 115-173c9-10 19-19 34-19l320 0c24 0 43 19 43 43l0 298c0 24-19 43-43 43z m-64-269l-30-30-76 77-77-77-30 30 77 77-77 77 30 30 77-77 76 77 30-30-76-77z"/>
<glyph unicode="&#57368;" d="M414 299c-15 72-79 128-158 128-62 0-115-34-141-86-66-8-115-62-115-128 0-70 58-128 128-128l277 0c60 0 107 47 107 107 0 55-45 102-98 107z m-115-64l0-86-86 0 0 86-64 0 107 106 107-106z"/>
<glyph unicode="&#57369;" d="M405 491l-298 0c-24 0-43-20-43-43l0-275c0-15 6-28 19-36l173-116 173 116c10 8 19 21 19 36l0 275c0 23-19 43-43 43z m-192-320l-106 106 30 30 76-77 162 163 30-30z"/>
<glyph unicode="&#57370;" d="M256 469c-117 0-213-96-213-213 0-117 96-213 213-213 117 0 213 96 213 213 0 117-96 213-213 213z m-171-213c0 94 77 171 171 171 38 0 75-13 105-37l-239-239c-24 30-37 67-37 105z m171-171c-38 0-75 13-105 37l239 239c24-30 37-67 37-105 0-94-77-171-171-171z"/>
<glyph unicode="&#57371;" d="M378 348l-122 121-21 0 0-162-98 98-30-30 119-119-119-119 30-30 98 98 0-162 21 0 122 121-92 92z m-101 40l41-40-41-41z m41-224l-41-40 0 81z"/>
<glyph unicode="&#57372;" d="M303 256l49-49c6 15 9 32 9 49 0 17-5 34-9 49z m113 113l-26-28c13-25 22-55 22-85 0-30-9-60-22-85l26-26c21 32 32 73 32 113 0 41-11 79-32 111z m-81-21l-122 121-21 0 0-162-98 98-30-30 119-119-119-119 30-30 98 98 0-162 21 0 122 121-92 92z m-100 40l40-40-40-41z m40-224l-40-40 0 81z"/>
<glyph unicode="&#57373;" d="M149 256l-42 43-43-43 43-43z m229 92l-122 121-21 0 0-162-98 98-30-30 119-119-119-119 30-30 98 98 0-162 21 0 122 121-92 92z m-101 40l41-40-41-41z m41-224l-41-40 0 81z m87 135l-42-43 42-43 43 43z"/>
<glyph unicode="&#57374;" d="M277 388l41-40-34-34 30-30 64 64-122 121-21 0 0-106 42-43z m-162 39l-30-30 141-141-119-119 30-30 98 98 0-162 21 0 92 91 49-49 30 30z m162-303l0 81 41-41z"/>
<glyph unicode="&#57375;" d="M303 256l49-49c6 15 9 32 9 49 0 17-5 34-9 49z m113 113l-26-28c13-25 22-55 22-85 0-30-9-60-22-85l26-26c21 32 32 73 32 113 0 41-11 79-32 111z m-81-21l-122 121-21 0 0-162-98 98-30-30 119-119-119-119 30-30 98 98 0-162 21 0 122 121-92 92z m-100 40l40-40-40-41z m40-224l-40-40 0 81z"/>
<glyph unicode="&#57376;" d="M344 262c27 18 46 48 46 76 0 62-48 110-110 110l-171 0 0-384 193 0c57 0 101 47 101 104 0 42-23 77-59 94z m-153 117l82 0c23 0 41-18 41-41 0-22-18-41-41-41l-82 0z m96-246l-96 0 0 82 96 0c23 0 41-19 41-41 0-23-18-41-41-41z"/>
<glyph unicode="&#57377;" d="M384 43c23 0 43 19 43 42l0 342c0 23-20 42-43 42l-128 0 0-149-53 32-54-32 0 149-21 0c-23 0-43-19-43-42l0-342c0-23 20-42 43-42z"/>
<glyph unicode="&#57378;" d="M363 448l-214 0c-23 0-42-19-42-43l0-341 149 64 149-64 0 341c0 24-19 43-42 43z"/>
<glyph unicode="&#57379;" d="M363 448l-214 0c-23 0-42-19-42-43l0-341 149 64 149-64 0 341c0 24-19 43-42 43z m0-320l-107 47-107-47 0 277 214 0z"/>
<glyph unicode="&#57380;" d="M233 243l49 0-26 77z m194 83l0 101-101 0-70 70-70-70-101 0 0-101-70-70 70-70 0-101 101 0 70-70 70 70 101 0 0 101 70 70z m-122-155l-15 42-68 0-15-42-41 0 69 192 42 0 69-192z"/>
<glyph unicode="&#57381;" d="M427 326l0 101-101 0-70 70-70-70-101 0 0-101-70-70 70-70 0-101 101 0 70-70 70 70 101 0 0 101 70 70z m-171-198c-70 0-128 58-128 128 0 70 58 128 128 128 70 0 128-58 128-128 0-70-58-128-128-128z m0 213c-47 0-85-38-85-85 0-47 38-85 85-85 47 0 85 38 85 85 0 47-38 85-85 85z"/>
<glyph unicode="&#57382;" d="M427 186l70 70-70 70 0 101-101 0-70 70-70-70-101 0 0-101-70-70 70-70 0-101 101 0 70-70 70 70 101 0z m-171-58c-70 0-128 58-128 128 0 70 58 128 128 128 70 0 128-58 128-128 0-70-58-128-128-128z"/>
<glyph unicode="&#57383;" d="M427 186l70 70-70 70 0 101-101 0-70 70-70-70-101 0 0-101-70-70 70-70 0-101 101 0 70-70 70 70 101 0z m-171-58l0 256c70 0 128-58 128-128 0-70-58-128-128-128z"/>
<glyph unicode="&#57384;" d="M427 341l-60 0c-11 17-24 32-38 43l34 34-30 30-47-47c-9 2-19 4-30 4-11 0-21-2-30-4l-47 47-30-30 34-34c-14-11-27-26-38-43l-60 0 0-42 45 0c-2-7-2-15-2-22l0-21-43 0 0-43 43 0 0-21c0-6 0-15 2-21l-45 0 0-43 60 0c21-38 64-64 111-64 47 0 90 26 111 64l60 0 0 43-45 0c2 6 2 15 2 21l0 21 43 0 0 43-43 0 0 21c0 7 0 15-2 22l45 0z m-128-170l-86 0 0 42 86 0z m0 85l-86 0 0 43 86 0z"/>
<glyph unicode="&#57385;" d="M256 395c17 0 32 15 32 32 0 6-2 10-4 17l-28 47-28-47c-2-5-4-11-4-17 0-17 15-32 32-32z m139-54l-118 0 0 32-42 0 0-32-118 0c-53 0-96-42-96-96 0-34 17-62 43-79l0-145 384 0 0 145c26 17 43 47 43 79 0 54-43 96-96 96z m0-149c-15 0-28 6-39 15l-32 32-32-32c-8-9-21-15-36-15-15 0-28 6-38 15l-32 32-32-32c-9-9-22-15-37-15-30 0-53 23-53 53 0 30 23 54 53 54l278 0c30 0 53-24 53-54 0-30-23-53-53-53z"/>
<glyph unicode="&#57386;" d="M141 282c30-60 81-109 141-141l47 47c6 6 14 8 21 4 23-9 49-13 77-13 12 0 21-8 21-21l0-73c0-12-9-21-21-21-201 0-363 162-363 363 0 12 9 21 21 21l75 0c13 0 21-9 21-21 0-26 5-52 13-77 2-7 0-15-4-21z"/>
<glyph unicode="&#57387;" d="M256 320c-34 0-66-6-98-15l0-66c0-9-4-15-13-19-21-11-40-24-58-41-4-4-8-6-14-6-7 0-11 2-15 6l-54 54c-2 4-4 8-4 14 0 7 2 11 6 15 64 62 154 101 250 101 96 0 186-39 250-101 4-4 6-8 6-15 0-6-2-10-6-14l-54-54c-4-4-8-6-15-6-6 0-10 2-15 6-17 15-36 30-57 41-7 4-13 10-13 19l0 66c-30 9-62 15-96 15z"/>
<glyph unicode="&#57388;" d="M192 405l0-42 141 0-269-269 30-30 269 269 0-141 42 0 0 213z"/>
<glyph unicode="&#57389;" d="M363 77l30 30-73 72-30-30z m-203 264l75 0 0-119-116-115 30-30 128 128 0 136 75 0-96 96z"/>
<glyph unicode="&#57390;" d="M418 363l-162-162-119 119 98 0 0 43-171 0 0-171 43 0 0 98 149-149 192 192z"/>
<glyph unicode="&#57391;" d="M448 418l-30 30-269-269 0 141-42 0 0-213 213 0 0 42-141 0z"/>
<glyph unicode="&#57392;" d="M299 427l49-49-62-62 30-30 62 62 49-49 0 128z m-86 0l-128 0 0-128 49 49 101-101 0-162 42 0 0 180-113 113z"/>
<glyph unicode="&#57393;" d="M201 288l102 177c-15 2-32 4-47 4-51 0-98-17-134-49l79-134z m258 32c-20 62-66 113-128 134l-77-134z m6-21l-160 0 6-11 103-177c34 38 55 90 55 145 0 15-2 30-4 43z m-284-43l-83 145c-34-38-55-90-55-145 0-15 2-30 4-43l160 0z m-128-64c20-62 66-113 128-134l79 134z m239 0l-83-145c15-4 30-4 47-4 51 0 98 17 134 49l-79 134z"/>
<glyph unicode="&#57394;" d="M324 256c0-38-30-68-68-68-38 0-68 30-68 68 0 38 30 68 68 68 38 0 68-30 68-68z m-132 213l-38-42-69 0c-23 0-42-20-42-43l0-256c0-23 19-43 42-43l342 0c23 0 42 20 42 43l0 256c0 23-19 43-42 43l-69 0-38 42z m64-320c-60 0-107 47-107 107 0 60 47 107 107 107 60 0 107-47 107-107 0-60-47-107-107-107z"/>
<glyph unicode="&#57395;" d="M299 405c0 24-20 43-43 43l-21 0 0 21c0 13-9 22-22 22l-85 0c-13 0-21-9-21-22l0-21-22 0c-23 0-42-19-42-43l0-320c0-23 19-42 42-42l171 0c23 0 43 19 43 42l170 0 0 320z m-43-277l-43 0 0 43 43 0z m0 192l-43 0 0 43 43 0z m85-192l-42 0 0 43 42 0z m0 192l-42 0 0 43 42 0z m86-192l-43 0 0 43 43 0z m0 192l-43 0 0 43 43 0z"/>
<glyph unicode="&#57396;" d="M256 469c-117 0-213-96-213-213 0-117 96-213 213-213 117 0 213 96 213 213 0 117-96 213-213 213z m107-290l-30-30-77 77-77-77-30 30 77 77-77 77 30 30 77-77 77 77 30-30-77-77z"/>
<glyph unicode="&#57397;" d="M448 448l-384 0c-23 0-43-19-43-43l0-64 43 0 0 64 384 0 0-298-149 0 0-43 149 0c23 0 43 19 43 43l0 298c0 24-20 43-43 43z m-427-320l0-64 64 0c0 36-27 64-64 64z m0 85l0-42c60 0 107-47 107-107l43 0c0 83-66 149-150 149z m0 86l0-43c107 0 192-85 192-192l43 0c0 130-105 235-235 235z"/>
<glyph unicode="&#57398;" d="M21 128l0-64 64 0c0 36-27 64-64 64z m0 85l0-42c60 0 107-47 107-107l43 0c0 83-66 149-150 149z m384 150l-298 0 0-34c85-28 151-94 179-180l119 0z m-384-64l0-43c107 0 192-85 192-192l43 0c0 130-105 235-235 235z m427 149l-384 0c-23 0-43-19-43-43l0-64 43 0 0 64 384 0 0-298-149 0 0-43 149 0c23 0 43 19 43 43l0 298c0 24-20 43-43 43z"/>
<glyph unicode="&#57399;" d="M427 469l-342 0c-23 0-42-19-42-42l0-384 85 85 299 0c23 0 42 19 42 43l0 256c0 23-19 42-42 42z m-299-149l256 0 0-43-256 0z m171-107l-171 0 0 43 171 0z m85 128l-256 0 0 43 256 0z"/>
<glyph unicode="&#57400;" d="M192 166l-90 90-29-30 119-119 256 256-30 30z"/>
<glyph unicode="&#57401;" d="M405 448l-298 0c-24 0-43-19-43-43l0-298c0-24 19-43 43-43l298 0c24 0 43 19 43 43l0 298c0 24-19 43-43 43z m-192-299l-106 107 30 30 76-77 162 162 30-30z"/>
<glyph unicode="&#57402;" d="M405 448l-298 0c-24 0-43-19-43-43l0-298c0-24 19-43 43-43l298 0c24 0 43 19 43 43l0 298c0 24-19 43-43 43z"/>
<glyph unicode="&#57403;" d="M169 297l-30-30 96-96 213 213-30 30-183-184z m236-190l-298 0 0 298 213 0 0 43-213 0c-24 0-43-19-43-43l0-298c0-24 19-43 43-43l298 0c24 0 43 19 43 43l0 170-43 0z"/>
<glyph unicode="&#57404;" d="M405 405l0-298-298 0 0 298z m0 43l-298 0c-24 0-43-19-43-43l0-298c0-24 19-43 43-43l298 0c24 0 43 19 43 43l0 298c0 24-19 43-43 43z"/>
<glyph unicode="&#57405;" d="M256 469c-117 0-213-96-213-213 0-117 96-213 213-213 117 0 213 96 213 213 0 117-96 213-213 213z m-43-320l-106 107 30 30 76-77 162 162 30-30z"/>
<glyph unicode="&#57406;" d="M256 469c-117 0-213-96-213-213 0-117 96-213 213-213 117 0 213 96 213 213 0 117-96 213-213 213z"/>
<glyph unicode="&#57407;" d="M169 297l-30-30 96-96 213 213-30 30-183-184z m258-41c0-94-77-171-171-171-94 0-171 77-171 171 0 94 77 171 171 171 17 0 32-2 47-7l34 34c-26 9-53 15-81 15-117 0-213-96-213-213 0-117 96-213 213-213 117 0 213 96 213 213z"/>
<glyph unicode="&#57408;" d="M256 469c-117 0-213-96-213-213 0-117 96-213 213-213 117 0 213 96 213 213 0 117-96 213-213 213z m0-384c-94 0-171 77-171 171 0 94 77 171 171 171 94 0 171-77 171-171 0-94-77-171-171-171z"/>
<glyph unicode="&#57409;" d="M329 354l-30 30-128-128 128-128 30 30-99 98z"/>
<glyph unicode="&#57410;" d="M213 384l-30-30 99-98-99-98 30-30 128 128z"/>
<glyph unicode="&#57411;" d="M256 469c-117 0-213-96-213-213 0-117 96-213 213-213 117 0 213 96 213 213 0 117-96 213-213 213z m0-42c64 0 117-34 147-86l-147 0c-41 0-77-30-83-68l-51 88c32 40 79 66 134 66z m64-171c0-36-28-64-64-64-36 0-64 28-64 64 0 36 28 64 64 64 36 0 64-28 64-64z m-235 0c0 32 9 60 24 85l74-128c15-25 43-42 73-42 11 0 19 2 28 4l-51-88c-84 11-148 84-148 169z m171-171l75 128c6 13 12 28 12 43 0 26-10 49-29 64l102 0c9-19 13-41 13-64-2-94-79-171-173-171z"/>
<glyph unicode="&#57412;" d="M356 192c-17-49-64-85-121-85-71 0-128 57-128 128 0 55 36 102 85 121 0 2 0 5 0 7 0 21 4 42 11 62-90-15-160-94-160-190 0-107 85-192 192-192 96 0 175 70 190 160-20-7-41-11-62-11-2 0-5 0-7 0z m7 299c-71 0-128-58-128-128 0-71 57-128 128-128 70 0 128 57 128 128 0 70-58 128-128 128z m0-192c-37 0-64 27-64 64 0 36 27 64 64 64 36 0 64-28 64-64 0-37-28-64-64-64z"/>
<glyph unicode="&#57413;" d="M256 469c-117 0-213-96-213-213 0-117 96-213 213-213 117 0 213 96 213 213 0 117-96 213-213 213z m0-384c-94 0-171 77-171 171 0 94 77 171 171 171 94 0 171-77 171-171 0-94-77-171-171-171z m21 192l0 64-42 0 0-64-64 0 0-42 64 0 0-64 42 0 0 64 64 0 0 42z"/>
<glyph unicode="&#57414;" d="M256 299c47 0 85 38 85 85 0 47-38 85-85 85-47 0-85-38-85-85 0-47 38-85 85-85z m0 128c23 0 43-20 43-43 0-23-20-43-43-43-23 0-43 20-43 43 0 23 20 43 43 43z m-128-192c-47 0-85-39-85-86 0-47 38-85 85-85 47 0 85 38 85 85 0 47-38 86-85 86z m0-128c-23 0-43 19-43 42 0 24 20 43 43 43 23 0 43-19 43-43 0-23-20-42-43-42z m128 168c-21 0-41-19-41-40 0-22 20-41 41-41 21 0 41 19 41 41 0 21-20 40-41 40z m128-40c-47 0-85-39-85-86 0-47 38-85 85-85 47 0 85 38 85 85 0 47-38 86-85 86z m0-128c-23 0-43 19-43 42 0 24 20 43 43 43 23 0 43-19 43-43 0-23-20-42-43-42z"/>
<glyph unicode="&#57415;" d="M405 375l-30 30-119-119-119 119-30-30 119-119-119-119 30-30 119 119 119-119 30 30-119 119z"/>
<glyph unicode="&#57416;" d="M405 375l-30 30-119-119-119 119-30-30 119-119-119-119 30-30 119 119 119-119 30 30-119 119z"/>
<glyph unicode="&#57417;" d="M405 427l-298 0c-24 0-43-20-43-43l0-256c0-23 19-43 43-43l298 0c24 0 43 20 43 43l0 256c0 23-19 43-43 43z m-170-150l-32 0 0 11-43 0 0-64 43 0 0 11 32 0 0-22c0-12-9-21-22-21l-64 0c-12 0-21 9-21 21l0 86c0 12 9 21 21 21l64 0c13 0 22-9 22-21z m149 0l-32 0 0 11-43 0 0-64 43 0 0 11 32 0 0-22c0-12-9-21-21-21l-64 0c-13 0-22 9-22 21l0 86c0 12 9 21 22 21l64 0c12 0 21-9 21-21z"/>
<glyph unicode="&#57418;" d="M414 299c-15 72-79 128-158 128-62 0-115-34-141-86-66-8-115-62-115-128 0-70 58-128 128-128l277 0c60 0 107 47 107 107 0 55-45 102-98 107z"/>
<glyph unicode="&#57419;" d="M256 469c-117 0-213-96-213-213 0-117 96-213 213-213 117 0 213 96 213 213 0 117-96 213-213 213z m107-277l-203 0c-30 0-53 23-53 53 0 30 23 54 53 54l13 0c8 36 42 64 83 64 47 0 85-39 85-86l22 0c23 0 42-19 42-42 0-24-19-43-42-43z"/>
<glyph unicode="&#57420;" d="M414 299c-15 72-79 128-158 128-62 0-115-34-141-86-66-8-115-62-115-128 0-70 58-128 128-128l277 0c60 0 107 47 107 107 0 55-45 102-98 107z m-201-150l-74 75 30 30 44-45 111 111 30-30z"/>
<glyph unicode="&#57421;" d="M414 299c-15 72-79 128-158 128-62 0-115-34-141-86-66-8-115-62-115-128 0-70 58-128 128-128l277 0c60 0 107 47 107 107 0 55-45 102-98 107z m-51-64l-107-107-107 107 64 0 0 85 86 0 0-85z"/>
<glyph unicode="&#57422;" d="M414 299c-15 72-79 128-158 128-32 0-62-9-85-26l32-32c15 11 34 15 53 15 64 0 117-53 117-117l0-11 32 0c37 0 64-28 64-64 0-23-12-45-34-55l32-32c28 19 45 51 45 87 0 55-45 102-98 107z m-350 100l60-58c-69-4-124-59-124-128 0-70 58-128 128-128l250 0 42-42 28 27-356 357z m100-100l171-171-207 0c-47 0-85 38-85 85 0 47 38 86 85 86z"/>
<glyph unicode="&#57423;" d="M414 299c-15 72-79 128-158 128-62 0-115-34-141-86-66-8-115-62-115-128 0-70 58-128 128-128l277 0c60 0 107 47 107 107 0 55-45 102-98 107z m-9-171l-277 0c-47 0-85 38-85 85 0 47 38 86 85 86l15 0c15 49 60 85 113 85 64 0 117-53 117-117l0-11 32 0c37 0 64-28 64-64 0-36-27-64-64-64z"/>
<glyph unicode="&#57424;" d="M414 299c-15 72-79 128-158 128-62 0-115-34-141-86-66-8-115-62-115-128 0-70 58-128 128-128l277 0c60 0 107 47 107 107 0 55-45 102-98 107z m-115-64l0-86-86 0 0 86-64 0 107 106 107-106z"/>
<glyph unicode="&#57425;" d="M469 427c0 23-19 42-42 42l-342 0c-23 0-42-19-42-42l0-256c0-24 19-43 42-43l299 0 85-85z m-85-214l-256 0 0 43 256 0z m0 64l-256 0 0 43 256 0z m0 64l-256 0 0 43 256 0z"/>
<glyph unicode="&#57426;" d="M192 256c-23 0-43-19-43-43 0-23 20-42 43-42 23 0 43 19 43 42 0 24-20 43-43 43z m107 64c0 23-20 43-43 43-23 0-43-20-43-43 0-23 20-43 43-43 23 0 43 20 43 43z m-43 149c-117 0-213-96-213-213 0-117 96-213 213-213 117 0 213 96 213 213 0 117-96 213-213 213z m0-384c-94 0-171 77-171 171 0 94 77 171 171 171 94 0 171-77 171-171 0-94-77-171-171-171z m64 171c-23 0-43-19-43-43 0-23 20-42 43-42 23 0 43 19 43 42 0 24-20 43-43 43z"/>
<glyph unicode="&#57427;" d="M341 491l-256 0c-23 0-42-20-42-43l0-299 42 0 0 299 256 0z m64-86l-234 0c-24 0-43-19-43-42l0-299c0-23 19-43 43-43l234 0c24 0 43 20 43 43l0 299c0 23-19 42-43 42z m0-341l-234 0 0 299 234 0z"/>
<glyph unicode="&#57428;" d="M213 384c0 47-38 85-85 85-47 0-85-38-85-85 0-47 38-85 85-85 13 0 23 2 34 8l51-51-51-51c-11 6-21 8-34 8-47 0-85-38-85-85 0-47 38-85 85-85 47 0 85 38 85 85 0 13-2 23-8 34l51 51 149-149 86 0-286 286c6 11 8 21 8 34z m-85-43c-23 0-43 20-43 43 0 23 20 43 43 43 23 0 43-20 43-43 0-23-20-43-43-43z m0-256c-23 0-43 20-43 43 0 23 20 43 43 43 23 0 43-20 43-43 0-23-20-43-43-43z m128 182c6 0 11-5 11-11 0-6-5-11-11-11-6 0-11 5-11 11 0 6 5 11 11 11z m235 181l-86 0-128-128 43-43z"/>
<glyph unicode="&#57429;" d="M405 469l-89 0c-9 26-32 43-60 43-28 0-51-17-60-43l-89 0c-24 0-43-19-43-42l0-342c0-23 19-42 43-42l298 0c24 0 43 19 43 42l0 342c0 23-19 42-43 42z m-149 0c13 0 21-8 21-21 0-13-8-21-21-21-13 0-21 8-21 21 0 13 8 21 21 21z m149-384l-298 0 0 342 42 0 0-64 214 0 0 64 42 0z"/>
<glyph unicode="&#57430;" d="M64 145l0-81 81 0 235 237-81 81z m378 218c8 8 8 21 0 30l-49 49c-9 8-22 8-30 0l-39-39 81-81z"/>
<glyph unicode="&#57431;" d="M427 427l-342 0c-23 0-42-20-42-43l0-256c0-23 19-43 42-43l342 0c23 0 42 20 42 43l0 256c0 23-19 43-42 43z m0-299l-342 0 0 128 342 0z m0 213l-342 0 0 43 342 0z"/>
<glyph unicode="&#57432;" d="M363 192l42 0 0 171c0 23-19 42-42 42l-171 0 0-42 171 0z m-214-43l0 342-42 0 0-86-86 0 0-42 86 0 0-214c0-23 19-42 42-42l214 0 0-86 42 0 0 86 86 0 0 42z"/>
<glyph unicode="&#57433;" d="M64 405l0-85 43 0 0 85 85 0 0 43-85 0c-24 0-43-19-43-43z m43-213l-43 0 0-85c0-24 19-43 43-43l85 0 0 43-85 0z m298-85l-85 0 0-43 85 0c24 0 43 19 43 43l0 85-43 0z m0 341l-85 0 0-43 85 0 0-85 43 0 0 85c0 24-19 43-43 43z"/>
<glyph unicode="&#57434;" d="M405 405l-298 0c-24 0-43-19-43-42l0-214c0-23 19-42 43-42l298 0c24 0 43 19 43 42l0 214c0 23-19 42-43 42z m0-256l-298 0 0 214 298 0z"/>
<glyph unicode="&#57435;" d="M363 448l-214 0c-23 0-42-19-42-43l0-298c0-24 19-43 42-43l214 0c23 0 42 19 42 43l0 298c0 24-19 43-42 43z m0-341l-214 0 0 298 214 0z"/>
<glyph unicode="&#57436;" d="M384 427l-256 0c-23 0-43-20-43-43l0-256c0-23 20-43 43-43l256 0c23 0 43 20 43 43l0 256c0 23-20 43-43 43z m0-299l-256 0 0 256 256 0z"/>
<glyph unicode="&#57437;" d="M277 467l0-64c73-10 128-72 128-147 0-19-4-36-10-53l55-32c13 25 19 55 19 87 0 109-83 199-192 209z m-21-360c-83 0-149 66-149 149 0 75 55 137 128 147l0 64c-109-8-192-100-192-211 0-117 96-213 213-213 70 0 132 34 173 87l-56 32c-27-34-70-55-117-55z"/>
<glyph unicode="&#57438;" d="M128 107c0-24 19-43 43-43l170 0c24 0 43 19 43 43l0 256-256 0z m277 320l-74 0-22 21-106 0-22-21-74 0 0-43 298 0z"/>
<glyph unicode="&#57439;" d="M149 405l214 0 0-42 42 0 0 85c0 23-19 43-42 43l-214 0c-23 0-42-20-42-43l0-85 42 0z m180-247l98 98-98 98-30-30 68-68-68-68z m-116 30l-68 68 68 68-30 30-98-98 98-98z m150-81l-214 0 0 42-42 0 0-85c0-23 19-43 42-43l214 0c23 0 42 20 42 43l0 85-42 0z"/>
<glyph unicode="&#57440;" d="M256 107c-23 0-43-20-43-43 0-23 20-43 43-43 23 0 43 20 43 43 0 23-20 43-43 43z m-128 384c-23 0-43-20-43-43 0-23 20-43 43-43 23 0 43 20 43 43 0 23-20 43-43 43z m0-128c-23 0-43-20-43-43 0-23 20-43 43-43 23 0 43 20 43 43 0 23-20 43-43 43z m0-128c-23 0-43-20-43-43 0-23 20-43 43-43 23 0 43 20 43 43 0 23-20 43-43 43z m256 170c23 0 43 20 43 43 0 23-20 43-43 43-23 0-43-20-43-43 0-23 20-43 43-43z m-128-170c-23 0-43-20-43-43 0-23 20-43 43-43 23 0 43 20 43 43 0 23-20 43-43 43z m128 0c-23 0-43-20-43-43 0-23 20-43 43-43 23 0 43 20 43 43 0 23-20 43-43 43z m0 128c-23 0-43-20-43-43 0-23 20-43 43-43 23 0 43 20 43 43 0 23-20 43-43 43z m-128 0c-23 0-43-20-43-43 0-23 20-43 43-43 23 0 43 20 43 43 0 23-20 43-43 43z m0 128c-23 0-43-20-43-43 0-23 20-43 43-43 23 0 43 20 43 43 0 23-20 43-43 43z"/>
<glyph unicode="&#57441;" d="M463 271l-192 192c-9 8-21 8-30 0l-192-192c-8-9-8-21 0-30l192-192c9-8 21-8 30 0l192 192c8 9 8 21 0 30z m-164-68l0 53-86 0 0-64-42 0 0 85c0 13 8 22 21 22l107 0 0 53 74-75z"/>
<glyph unicode="&#57442;" d="M341 410c22 0 39 17 39 38 0 21-17 38-39 38-21 0-38-17-38-38 0-21 17-38 38-38z m64-154c-59 0-106-47-106-107 0-59 47-106 106-106 60 0 107 47 107 106 0 60-47 107-107 107z m0-181c-40 0-74 34-74 74 0 41 34 75 74 75 41 0 75-34 75-75 0-40-34-74-75-74z m-89 224l89 0 0 38-68 0-40 70c-7 11-18 18-32 18-11 0-20-5-26-11l-79-79c-6-6-11-15-11-26 0-12 7-25 17-32l73-42 0-107 38 0 0 139-47 36 49 49z m-209-43c-60 0-107-47-107-107 0-59 47-106 107-106 59 0 106 47 106 106 0 60-47 107-106 107z m0-181c-41 0-75 34-75 74 0 41 34 75 75 75 40 0 74-34 74-75 0-40-34-74-74-74z"/>
<glyph unicode="&#57443;" d="M85 171c0-20 9-37 22-47l0-39c0-12 8-21 21-21l21 0c13 0 22 9 22 21l0 22 170 0 0-22c0-12 9-21 22-21l21 0c13 0 21 9 21 21l0 39c13 10 22 27 22 47l0 213c0 75-77 85-171 85-94 0-171-10-171-85z m75-22c-17 0-32 15-32 32 0 17 15 32 32 32 17 0 32-15 32-32 0-17-15-32-32-32z m192 0c-17 0-32 15-32 32 0 17 15 32 32 32 17 0 32-15 32-32 0-17-15-32-32-32z m32 128l-256 0 0 107 256 0z"/>
<glyph unicode="&#57444;" d="M403 384c-4 13-17 21-30 21l-234 0c-15 0-26-8-30-21l-45-128 0-171c0-12 9-21 21-21l22 0c12 0 21 9 21 21l0 22 256 0 0-22c0-12 9-21 21-21l22 0c12 0 21 9 21 21l0 171z m-264-213c-17 0-32 15-32 32 0 17 15 32 32 32 17 0 32-15 32-32 0-17-15-32-32-32z m234 0c-17 0-32 15-32 32 0 17 15 32 32 32 17 0 32-15 32-32 0-17-15-32-32-32z m-266 106l32 96 234 0 32-96z"/>
<glyph unicode="&#57445;" d="M256 469c-94 0-171-10-171-85l0-203c0-40 34-74 75-74l-32-32 0-11 256 0 0 11-32 32c41 0 75 34 75 74l0 203c0 75-77 85-171 85z m-96-320c-17 0-32 15-32 32 0 17 15 32 32 32 17 0 32-15 32-32 0-17-15-32-32-32z m75 128l-107 0 0 107 107 0z m117-128c-17 0-32 15-32 32 0 17 15 32 32 32 17 0 32-15 32-32 0-17-15-32-32-32z m32 128l-107 0 0 107 107 0z"/>
<glyph unicode="&#57446;" d="M85 181c0-40 34-74 75-74l-32-32 0-11 256 0 0 11-32 32c41 0 75 34 75 74l0 224c0 75-77 86-171 86-94 0-171-11-171-86z m171-32c-23 0-43 20-43 43 0 23 20 43 43 43 23 0 43-20 43-43 0-23-20-43-43-43z m128 150l-256 0 0 106 256 0z"/>
<glyph unicode="&#57447;" d="M256 469c-94 0-171-10-171-85l0-203c0-40 34-74 75-74l-32-32 0-11 256 0 0 11-32 32c41 0 75 34 75 74l0 203c0 75-77 85-171 85z m-96-320c-17 0-32 15-32 32 0 17 15 32 32 32 17 0 32-15 32-32 0-17-15-32-32-32z m75 128l-107 0 0 107 107 0z m117-128c-17 0-32 15-32 32 0 17 15 32 32 32 17 0 32-15 32-32 0-17-15-32-32-32z m32 128l-107 0 0 107 107 0z"/>
<glyph unicode="&#57448;" d="M299 431c21 0 38 17 38 38 0 22-17 39-38 39-22 0-39-17-39-39 0-21 17-38 39-38z m2-132l104 0 0 38-76 0-43 70c-7 11-19 20-32 20-4 0-7 0-11-2l-115-37 0-111 38 0 0 79 45 15-83-328 38 0 62 172 49-66 0-106 39 0 0 136-54 96 15 62z"/>
<glyph unicode="&#57449;" d="M427 171l42 0 0 42-42 0z m0 192l0-107 42 0 0 107z m-214 64c-94 0-170-77-170-171 0-94 76-171 170-171 94 0 171 77 171 171 0 94-77 171-171 171z m0-214c-23 0-42 20-42 43 0 23 19 43 42 43 24 0 43-20 43-43 0-23-19-43-43-43z"/>
<glyph unicode="&#57450;" d="M256 469c-117 0-213-96-213-213 0-117 96-213 213-213 117 0 213 96 213 213 0 117-96 213-213 213z m-171-213c0 94 77 171 171 171 38 0 75-13 105-37l-239-239c-24 30-37 67-37 105z m171-171c-38 0-75 13-105 37l239 239c24-30 37-67 37-105 0-94-77-171-171-171z"/>
<glyph unicode="&#57451;" d="M171 21l170 0 0 43-170 0z m170 470l-170 0c-24 0-43-20-43-43l0-299c0-23 19-42 43-42l170 0c24 0 43 19 43 42l0 299c0 23-19 43-43 43z m0-299l-170 0 0 213 170 0z"/>
<glyph unicode="&#57452;" d="M256 363l0 85-213 0 0-384 426 0 0 299z m-128-256l-43 0 0 42 43 0z m0 85l-43 0 0 43 43 0z m0 85l-43 0 0 43 43 0z m0 86l-43 0 0 42 43 0z m85-256l-42 0 0 42 42 0z m0 85l-42 0 0 43 42 0z m0 85l-42 0 0 43 42 0z m0 86l-42 0 0 42 42 0z m214-256l-171 0 0 42 43 0 0 43-43 0 0 43 43 0 0 42-43 0 0 43 171 0z m-43 170l-43 0 0-42 43 0z m0-85l-43 0 0-43 43 0z"/>
<glyph unicode="&#57453;" d="M192 166l-90 90-29-30 119-119 256 256-30 30z"/>
<glyph unicode="&#57454;" d="M384 363l-30 30-134-135 30-30z m90 30l-224-227-90 90-30-30 120-119 256 256z m-465-167l119-119 30 30-120 119z"/>
<glyph unicode="&#57455;" d="M469 341c0 15-8 28-19 37l-194 113-194-113c-11-9-19-22-19-37l0-213c0-23 19-43 42-43l342 0c23 0 42 20 42 43z m-213-106l-177 111 177 102 177-102z"/>
<glyph unicode="&#57456;" d="M476 213l-147 256-146 0 148-256z m-269-21l-73-128 280 0 72 128z m-43 245l-138-245 72-128 141 245z"/>
<glyph unicode="&#57457;" d="M224 342l11 0 0-11-11 0z m53 0l11 0 0-11-11 0z m128 105l-298 0c-24 0-43-19-43-42l0-299c0-23 19-43 43-43l298 0c24 0 43 20 43 43l0 299c0 23-19 42-43 42z m-224-239c0-8-7-16-16-16-8 0-16 8-16 16l0 75c0 8 8 16 16 16 9 0 16-8 16-16z m139-16c0-6-4-11-11-11l-10 0 0-37c0-9-8-16-16-16-9 0-16 7-16 16l0 37-22 0 0-37c0-9-7-16-16-16-8 0-16 7-16 16l0 37-10 0c-7 0-11 5-11 11l0 107 128 0z m-128 118c0 21 11 39 26 51l-14 14c-1 2-1 6 0 8 2 1 6 1 8 0l15-16c9 4 18 7 29 7 11 0 20-3 28-8l16 16c2 2 5 2 7 0 2-2 2-5 0-7l-14-14c16-11 27-30 27-51l-128 0z m171-102c0-8-8-16-16-16-9 0-16 8-16 16l0 75c0 8 7 16 16 16 8 0 16-8 16-16z"/>
<glyph unicode="&#57458;" d="M405 448l-298 0c-24 0-43-19-43-43l0-298c0-24 19-43 43-43l298 0c24 0 43 19 43 43l0 298c0 24-19 43-43 43z m-125-144c17-9 29-27 29-48 0-21-12-39-29-48z m-24-143l-59 59-47 0 0 72 47 0 59 59z m24-9l0 24c34 11 59 42 59 80 0 38-25 69-59 79l0 25c47-11 82-53 82-104 0-51-35-93-82-104z"/>
<glyph unicode="&#57459;" d="M405 448l-298 0c-24 0-43-19-43-43l0-298c0-24 19-43 43-43l298 0c24 0 43 19 43 43l0 298c0 24-19 43-43 43z m-238-195l-2 0 0-1 2 0 45-17 0-19-65 29 0 15 65 29 0-19-45-17z m73-54l-17 0 45 124 17 0-44-124z m58 71l0 19 68-29 0-15-68-29 0 18 48 18 1 0 0 1-1 0-48 17z"/>
<glyph unicode="&#57460;" d="M405 448l-298 0c-24 0-43-19-43-43l0-298c0-24 19-43 43-43l298 0c24 0 43 19 43 43l0 298c0 24-19 43-43 43z m-42-128l-214 0 0 43 214 0z m0-85l-214 0 0 42 214 0z m-64-86l-150 0 0 43 150 0z"/>
<glyph unicode="&#57461;" d="M405 448l-298 0c-24 0-43-19-43-43l0-298c0-24 19-43 43-43l298 0c24 0 43 19 43 43l0 298c0 24-19 43-43 43z m-21-320l-128 0 0 124c-15-13-32-22-53-22-43 0-79 37-79 79 0 43 36 79 79 79 42 0 79-36 79-79 0-21-9-38-22-53l124 0z"/>
<glyph unicode="&#57462;" d="M403 405c-4 13-17 22-30 22l-234 0c-15 0-26-9-30-22l-45-128 0-170c0-13 9-22 21-22l22 0c12 0 21 9 21 22l0 21 256 0 0-21c0-13 9-22 21-22l22 0c12 0 21 9 21 22l0 170z m-264-213c-17 0-32 15-32 32 0 17 15 32 32 32 17 0 32-15 32-32 0-17-15-32-32-32z m234 0c-17 0-32 15-32 32 0 17 15 32 32 32 17 0 32-15 32-32 0-17-15-32-32-32z m-266 107l32 96 234 0 32-96z"/>
<glyph unicode="&#57463;" d="M128 469c-23 0-43-19-43-42l0-342c0-23 20-42 43-42l256 0c23 0 43 19 43 42l0 256-128 128z m149-149l0 117 118-117z"/>
<glyph unicode="&#57464;" d="M295 275c-3-3-5-6-5-10 0-3 1-5 3-7 2-2 5-3 9-3 5 0 9 1 13 3 4 3 7 6 8 9l0 12-15 0c-6 0-10-1-13-4z m-82 25l-16-49 33 0-16 49z m192 148l-298 0c-24 0-43-19-43-43l0-298c0-24 19-43 43-43l298 0c24 0 43 19 43 43l0 298c0 24-19 43-43 43z m-160-239l-9 27-45 0-9-27-19 0 42 114 18 0 41-114z m81 32l0 0c-1 2-2 4-2 6-1 3-1 5-1 7-3-4-6-8-10-10-5-3-9-4-15-4-8 0-15 2-20 6-5 5-7 11-7 19 0 8 3 15 10 19 6 5 15 7 27 7l15 0 0 7c0 5-1 8-4 11-3 2-6 4-11 4-5 0-8-1-11-4-2-2-3-5-3-8l-19 0 0 1c0 7 3 12 9 18 7 5 15 7 25 7 10 0 18-2 24-7 6-5 9-12 9-22l0-37c0-4 0-7 1-10 0-4 1-7 2-10l-20 0z"/>
<glyph unicode="&#57465;" d="M405 448l-298 0c-24 0-43-19-43-43l0-298c0-24 19-43 43-43l298 0c24 0 43 19 43 43l0 298c0 24-19 43-43 43z m-213-299l-43 0 0 43 43 0z m0 86l-43 0 0 42 43 0z m0 85l-43 0 0 43 43 0z m171-171l-150 0 0 43 150 0z m0 86l-150 0 0 42 150 0z m0 85l-150 0 0 43 150 0z"/>
<glyph unicode="&#57466;" d="M405 448l-298 0c-24 0-43-19-43-43l0-298c0-24 19-43 43-43l298 0c24 0 43 19 43 43l0 298c0 24-19 43-43 43z m0-154l-128-145-85 86-85-86 0 64 85 86 85-86 128 145z"/>
<glyph unicode="&#57467;" d="M448 107l0 298c0 24-19 43-43 43l-298 0c-24 0-43-19-43-43l0-298c0-24 19-43 43-43l298 0c24 0 43 19 43 43z m-267 117l54-64 74 96 96-128-298 0z"/>
<glyph unicode="&#57468;" d="M405 448l-298 0c-24 0-43-19-43-43l0-298c0-24 19-43 43-43l298 0c24 0 43 19 43 43l0 298c0 24-19 43-43 43z m-59-299l-43 0-47 81-47-81-43 0 69 107-69 107 43 0 47-81 47 81 43 0-69-107z"/>
<glyph unicode="&#57469;" d="M405 448l-298 0c-24 0-43-19-43-43l0-298c0-24 19-43 43-43l298 0c24 0 43 19 43 43l0 298c0 24-19 43-43 43z m-196-222l0-77-38 0 0 214 91 0c32 0 47-7 60-20 15-12 19-29 19-49 0-21-6-38-19-49-13-10-28-17-60-17l-53 0z m0 30l0 77 49 0c15 0 26-4 32-13 7-9 11-15 11-26 0-12-4-19-11-27-6-7-15-11-30-11z"/>
<glyph unicode="&#57470;" d="M405 448l-298 0c-24 0-43-19-43-43l0-298c0-24 19-43 43-43l298 0c24 0 43 19 43 43l0 298c0 24-19 43-43 43z m-74-299l-32 0-43 160-43-160-32 0-51 214 36 0 32-160 43 160 30 0 43-160 32 160 36 0z"/>
<glyph unicode="&#57471;" d="M241 329c2 0 2 0 0 0 2 8 4 12 4 19l0 4c2 11 2 19 0 21 0 0 0 0 0 2l-2 3c0 0 0-3-2-3-4-12-4-27 0-46z m-64-148c-4-2-8-4-11-6-15-13-25-28-27-34 12 2 25 15 38 40 2 0 2 0 0 0 2 0 0 0 0 0z m196 32c-2 2-10 9-40 9-2 0-2 0-4 0 0 0 0 0 0-2 14-7 29-11 40-11 2 0 2 0 4 0 0 0 2 0 2 0 0 0 0 0 0 2 0 0-2 0-2 2z m32 235l-298 0c-24 0-43-19-43-43l0-298c0-24 19-43 43-43l298 0c24 0 43 19 43 43l0 298c0 24-19 43-43 43z m-23-252c-4-2-11-4-19-4-17 0-43 4-64 15-37-4-64-9-86-17-2 0-2 0-4-2-26-45-47-66-64-66-4 0-6 0-8 2l-11 6 0 2c-2 5-2 7-2 11 2 11 15 30 40 45 5 2 11 6 19 10 7 11 13 24 22 39 10 21 17 42 23 62-8 25-13 40-4 70 2 9 9 17 17 17l4 0c5 0 9-2 13-4 15-15 9-49 0-77 0-2 0-2 0-2 9-24 21-43 34-56 7-4 11-8 19-12 11 0 20 2 28 2 26 0 43-4 49-15 2-4 2-9 2-13-2-2-4-8-8-13z m-139 83c-4-14-13-32-21-51-4-8-9-15-13-23 0 0 2 0 2 0l2 0c28 10 54 17 71 19-5 2-7 4-9 6-10 13-23 30-32 49z"/>
<glyph unicode="&#57472;" d="M405 448l-298 0c-24 0-43-19-43-43l0-298c0-24 19-43 43-43l298 0c24 0 43 19 43 43l0 298c0 24-19 43-43 43z m0-277l-298 0 0 170 298 0z"/>
<glyph unicode="&#57473;" d="M405 448l-298 0c-24 0-43-19-43-43l0-298c0-24 19-43 43-43l298 0c24 0 43 19 43 43l0 298c0 24-19 43-43 43z m-170-299l0 64-128 0 0 86 128 0 0 64 106-107z"/>
<glyph unicode="&#57474;" d="M405 427l-298 0c-24 0-43-20-43-43l0-256c0-23 19-43 43-43l298 0c24 0 43 20 43 43l0 256c0 23-19 43-43 43z m-106-299l-192 0 0 85 192 0z m0 107l-192 0 0 85 192 0z m106-107l-85 0 0 192 85 0z"/>
<glyph unicode="&#57475;" d="M405 448l-298 0c-24 0-43-19-43-43l0-298c0-24 19-43 43-43l298 0c24 0 43 19 43 43l0 298c0 24-19 43-43 43z m0-171l-170 0 0-170-43 0 0 170-85 0 0 43 85 0 0 85 43 0 0-85 170 0z"/>
<glyph unicode="&#57476;" d="M384 427l43-86-64 0-43 86-43 0 43-86-64 0-43 86-42 0 42-86-64 0-42 86-22 0c-23 0-42-20-42-43l0-256c0-23 19-43 42-43l342 0c23 0 42 20 42 43l0 299z"/>
<glyph unicode="&#57477;" d="M405 448l-148 0 0-48-48 0 0 48-102 0c-24 0-43-19-43-43l0-298c0-24 19-43 43-43l101 0 0 120 48 0 0-55 49 0 0-65 100 0c24 0 43 19 43 43l0 298c0 24-19 43-43 43z m-149-180l-48 0 0 48 48 0z m49-66l-48 0 0 48 48 0z m0 132l-48 0 0 48 48 0z m-77-226l58 0 0-24-58 0z"/>
<glyph unicode="&#57478;" d="M256 469c-117 0-213-96-213-213 0-117 96-213 213-213 117 0 213 96 213 213 0 117-96 213-213 213z m0-388c-23 0-47 4-68 13-13 32-13 55 23 45 0 0 83-32 171-2-30-35-75-56-126-56z m151 88c-19-9-44-22-85-22-40 0-75 17-119 30-41 13-56 32-81 32-15 0-22-15-26-26-11 22-17 47-17 73 0 17 2 34 6 49 28 34 69 56 128 9 0 0 133-101 209-107-2-13-8-26-15-38z m-142 181c-60 57-109 40-131 32 15 15 35 28 56 36 60 2 126-8 162-62 0 0 51-89 70-49 5-15 7-32 7-49 0-6 0-13 0-19-43 4-103 53-164 111z"/>
<glyph unicode="&#57479;" d="M427 427l-342 0c-23 0-42-20-42-43l0-256c0-23 19-43 42-43l342 0c23 0 42 20 42 43l0 256c0 23-19 43-42 43z m0-86l-171-106-171 106 0 43 171-107 171 107z"/>
<glyph unicode="&#57480;" d="M256 469c-117 0-213-96-213-213 0-117 96-213 213-213 117 0 213 96 213 213 0 117-96 213-213 213z m21-320l-42 0 0 43 42 0z m0 86l-42 0 0 128 42 0z"/>
<glyph unicode="&#57481;" d="M363 256l-107 0 0-107 107 0z m-22 235l0-43-170 0 0 43-43 0 0-43-21 0c-24 0-43-19-43-43l0-298c0-24 19-43 43-43l298 0c24 0 43 19 43 43l0 298c0 24-19 43-43 43l-21 0 0 43z m64-384l-298 0 0 234 298 0z"/>
<glyph unicode="&#57482;" d="M215 179l30-30 107 107-107 107-30-30 56-56-207 0 0-42 207 0z m190 269l-298 0c-24 0-43-19-43-43l0-85 43 0 0 85 298 0 0-298-298 0 0 85-43 0 0-85c0-24 19-43 43-43l298 0c24 0 43 19 43 43l0 298c0 24-19 43-43 43z"/>
<glyph unicode="&#57483;" d="M256 341l-128-128 30-30 98 99 98-99 30 30z"/>
<glyph unicode="&#57484;" d="M354 329l-98-99-98 99-30-30 128-128 128 128z"/>
<glyph unicode="&#57485;" d="M256 279c-13 0-23-10-23-23 0-13 10-23 23-23 13 0 23 10 23 23 0 13-10 23-23 23z m0 190c-117 0-213-96-213-213 0-117 96-213 213-213 117 0 213 96 213 213 0 117-96 213-213 213z m47-260l-175-81 81 175 175 81z"/>
<glyph unicode="&#57486;" d="M437 277l-32 0 0 86c0 23-19 42-42 42l-86 0 0 32c0 30-23 54-53 54-30 0-53-24-53-54l0-32-86 0c-23 0-42-19-42-42l0-81 32 0c32 0 57-26 57-58 0-32-25-58-57-58l-32 0 0-81c0-23 19-42 42-42l81 0 0 32c0 32 26 57 58 57 32 0 58-25 58-57l0-32 81 0c23 0 42 19 42 42l0 86 32 0c30 0 54 23 54 53 0 30-24 53-54 53z"/>
<glyph unicode="&#57487;" d="M85 128l182 128-182 128z m192 256l0-256 182 128z"/>
<glyph unicode="&#57488;" d="M235 128l0 256-182-128z m10 128l182-128 0 256z"/>
<glyph unicode="&#57489;" d="M256 55l-30 30c-111 98-183 165-183 246 0 66 51 117 117 117 36 0 73-17 96-45 23 28 60 45 96 45 66 0 117-51 117-117 0-81-72-148-183-246z"/>
<glyph unicode="&#57490;" d="M352 448c-36 0-73-17-96-45-23 28-60 45-96 45-66 0-117-51-117-117 0-81 72-148 183-246l30-27 30 27c109 101 183 167 183 246 0 66-51 117-117 117z m-94-333l-2 0-2 2c-103 92-169 152-169 214 0 42 32 74 75 74 32 0 64-21 77-51l40 0c11 30 43 51 75 51 43 0 75-32 75-74 0-62-66-122-169-216z"/>
<glyph unicode="&#57491;" d="M405 320l-85 0 0 128-128 0 0-128-85 0 149-149z m-298-192l0-43 298 0 0 43z"/>
<glyph unicode="&#57492;" d="M192 171l128 0 0 128 85 0-149 149-149-149 85 0z m-85-43l298 0 0-43-298 0z"/>
<glyph unicode="&#57493;" d="M213 128l86 0 0 43-86 0z m-149 256l0-43 384 0 0 43z m64-149l256 0 0 42-256 0z"/>
<glyph unicode="&#57494;" d="M307 384l-8 43-192 0 0-363 42 0 0 149 120 0 8-42 150 0 0 213z"/>
<glyph unicode="&#57495;" d="M64 469l0-256 64 0 0-192 149 256-85 0 85 192z m341 0l-42 0-69-192 41 0 15 43 68 0 15-43 41 0z m-44-119l23 77 23-77z"/>
<glyph unicode="&#57496;" d="M70 448l-27-28 106-106 0-79 64 0 0-192 77 130 88-88 27 28z m293-149l-86 0 86 170-214 0 0-47 182-181z"/>
<glyph unicode="&#57497;" d="M149 469l0-234 64 0 0-192 150 256-86 0 86 170z"/>
<glyph unicode="&#57498;" d="M469 267c0 17-15 32-32 32l-117 0-107 170-42 0 53-170-117 0-32 42-32 0 21-74-21-75 32 0 32 43 117 0-53-171 42 0 107 171 117 0c17 0 32 15 32 32z"/>
<glyph unicode="&#57499;" d="M192 363l-43 0 0-43 43 0z m0-86l-43 0 0-42 43 0z m0 171c-23 0-43-19-43-43l43 0z m85-256l-42 0 0-43 42 0z m128 256l0-43 43 0c0 24-19 43-43 43z m-128 0l-42 0 0-43 42 0z m-85-299l0 43-43 0c0-23 20-43 43-43z m213 86l43 0 0 42-43 0z m0 85l43 0 0 43-43 0z m0-171c24 0 43 20 43 43l-43 0z m-298 214l-43 0 0-256c0-24 19-43 43-43l256 0 0 43-256 0z m213 42l43 0 0 43-43 0z m0-256l43 0 0 43-43 0z"/>
<glyph unicode="&#57500;" d="M64 235l43 0 0 42-43 0z m0-86l43 0 0 43-43 0z m43-85l0 43-43 0c0-24 19-43 43-43z m-43 256l43 0 0 43-43 0z m256-256l43 0 0 43-43 0z m85 384l-213 0c-23 0-43-19-43-43l0-213c0-23 20-43 43-43l213 0c24 0 43 20 43 43l0 213c0 24-19 43-43 43z m0-256l-213 0 0 213 213 0z m-170-128l42 0 0 43-42 0z m-86 0l43 0 0 43-43 0z"/>
<glyph unicode="&#57501;" d="M213 427l-128 0c-23 0-42-20-42-43l0-256c0-23 19-43 42-43l342 0c23 0 42 20 42 43l0 213c0 24-19 43-42 43l-171 0z"/>
<glyph unicode="&#57502;" d="M427 384l-171 0-43 43-128 0c-23 0-42-20-42-43l0-256c0-23 19-43 42-43l342 0c23 0 42 20 42 43l0 213c0 24-19 43-42 43z m-177-235l-28 45 60 107 32-58-52-94z m140 0l-117 0 30 54 109 0 6-11z m-96 171l52 0 59-107-64 0-55 96z"/>
<glyph unicode="&#57503;" d="M427 384l-171 0-43 43-128 0c-23 0-42-20-42-43l0-256c0-23 19-43 42-43l342 0c23 0 42 20 42 43l0 213c0 24-19 43-42 43z m-107-64c23 0 43-19 43-43 0-23-20-42-43-42-23 0-43 19-43 42 0 24 20 43 43 43z m85-171l-170 0 0 22c0 27 57 42 85 42 28 0 85-15 85-42z"/>
<glyph unicode="&#57504;" d="M448 384l-43 0 0-192-277 0 0-43c0-12 9-21 21-21l235 0 85-85 0 320c0 12-8 21-21 21z m-85-128l0 192c0 13-9 21-22 21l-277 0c-13 0-21-8-21-21l0-299 85 86 213 0c13 0 22 8 22 21z"/>
<glyph unicode="&#57505;" d="M256 341l0 86 171-171-171-171 0 86-171 0 0 170z"/>
<glyph unicode="&#57506;" d="M149 213l-42 0 0-106 106 0 0 42-64 0z m-42 86l42 0 0 64 64 0 0 42-106 0z m256-150l-64 0 0-42 106 0 0 106-42 0z m-64 256l0-42 64 0 0-64 42 0 0 106z"/>
<glyph unicode="&#57507;" d="M107 171l64 0 0-64 42 0 0 106-106 0z m64 170l-64 0 0-42 106 0 0 106-42 0z m128-234l42 0 0 64 64 0 0 42-106 0z m42 234l0 64-42 0 0-106 106 0 0 42z"/>
<glyph unicode="&#57508;" d="M320 352l0 117-128 0 0-117 64-64z m-160-32l-117 0 0-128 117 0 64 64z m32-160l0-117 128 0 0 117-64 64z m160 160l-64-64 64-64 117 0 0 128z"/>
<glyph unicode="&#57509;" d="M320 352l0 117-128 0 0-117 64-64z m-160-32l-117 0 0-128 117 0 64 64z m32-160l0-117 128 0 0 117-64 64z m160 160l-64-64 64-64 117 0 0 128z"/>
<glyph unicode="&#57510;" d="M98 365c15 15 30 30 36 25 11-4 0-21-6-32-6-8-62-83-62-134 0-28 11-49 28-64 17-13 36-15 55-11 24 7 41 30 66 60 26 32 60 73 88 73 34 0 34-22 38-39-81-13-115-79-115-115 0-36 30-66 68-66 35 0 92 28 101 130l53 0 0 53-53 0c-5 34-24 90-86 90-47 0-89-41-104-60-13-15-45-53-49-57-7-7-15-17-24-17-8 0-15 17-8 40 8 24 30 62 40 75 15 25 26 42 26 70 0 47-34 62-53 62-28 0-52-21-58-28-6-6-13-13-19-19z m199-250c-7 0-15 7-15 15 0 13 15 47 61 60-8-58-32-75-46-75z"/>
<glyph unicode="&#57511;" d="M277 277l0-53 126 0c-13-75-72-128-147-128-87 0-160 73-160 160 0 87 73 160 160 160 45 0 83-19 111-49l38 38c-38 39-89 64-149 64-117 0-213-96-213-213 0-117 96-213 213-213 117 0 203 96 203 213l0 21z"/>
<glyph unicode="&#57512;" d="M427 427l-342 0c-23 0-42-20-42-43l0-256c0-23 19-43 42-43l342 0c23 0 42 20 42 43l0 256c0 23-19 43-42 43z m0-299l-43 0 0 188-128-81-128 81 0-188-43 0 0 256 26 0 145-90 145 90 26 0z"/>
<glyph unicode="&#57513;" d="M348 226l-24 17c-8 7-17 15-17 30 0 15 11 28 22 34 27 22 55 45 55 92 0 45-28 70-43 83l37 0 25 30-132 0c-94 0-141-60-141-124 0-49 39-102 107-102l17 0c-2-7-9-17-9-28 0-21 9-30 20-43-30-2-86-8-126-34-39-23-49-55-49-79 0-49 44-96 140-96 116 0 171 64 171 126 0 45-23 69-53 94z m-162 194c0 47 27 69 57 69 56 0 86-75 86-118 0-55-45-66-62-66-54 0-81 66-81 115z m76-384c-70 0-115 32-115 79 0 47 43 62 56 68 27 9 64 11 70 11 6 0 11 0 15 0 51-36 73-51 73-85 0-41-41-73-99-73z"/>
<glyph unicode="&#57514;" d="M448 299l0 64-43 0 0-64-64 0 0-43 64 0 0-64 43 0 0 64 64 0 0 43z m-164-73l-24 17c-8 7-17 15-17 30 0 15 11 28 22 34 27 22 55 45 55 92 0 45-28 70-43 83l37 0 25 30-132 0c-94 0-141-60-141-124 0-49 39-102 107-102l17 0c-2-7-9-17-9-28 0-21 9-30 20-43-30-2-86-8-126-34-39-23-49-55-49-79 0-49 44-96 140-96 116 0 171 64 171 126 0 45-23 69-53 94z m-162 194c0 47 27 69 57 69 56 0 86-75 86-118 0-55-45-66-62-66-54 0-81 66-81 115z m76-384c-70 0-115 32-115 79 0 47 43 62 56 68 27 9 64 11 70 11 6 0 11 0 15 0 51-36 73-51 73-85 0-41-41-73-99-73z"/>
<glyph unicode="&#57515;" d="M256 341c-47 0-85-38-85-85 0-47 38-85 85-85 47 0 85 38 85 85 0 47-38 85-85 85z m190-64c-11 90-81 160-169 169l0 45-42 0 0-45c-90-9-160-79-169-169l-45 0 0-42 45 0c11-90 81-160 169-169l0-45 42 0 0 45c90 11 160 81 169 169l45 0 0 42z m-190-170c-83 0-149 66-149 149 0 83 66 149 149 149 83 0 149-66 149-149 0-83-66-149-149-149z"/>
<glyph unicode="&#57516;" d="M446 277c-11 90-81 160-169 169l0 45-42 0 0-45c-90-9-160-79-169-169l-45 0 0-42 45 0c11-90 81-160 169-169l0-45 42 0 0 45c90 11 160 81 169 169l45 0 0 42z m-190-170c-83 0-149 66-149 149 0 83 66 149 149 149 83 0 149-66 149-149 0-83-66-149-149-149z"/>
<glyph unicode="&#57517;" d="M446 277c-11 90-81 160-169 169l0 45-42 0 0-45c-24-2-47-9-69-19l32-32c20 6 39 10 58 10 83 0 149-66 149-149 0-19-4-38-10-58l32-32c10 22 17 43 21 69l43 0 0 42z m-382 143l43-42c-22-28-37-62-41-101l-45 0 0-42 45 0c11-90 81-160 169-169l0-45 42 0 0 45c39 4 73 19 101 43l42-43 28 28-356 354z m284-281c-26-22-58-32-92-32-83 0-149 66-149 149 0 34 10 66 32 92z"/>
<glyph unicode="&#57518;" d="M341 277c37 0 64 28 64 64 0 37-27 64-64 64-36 0-64-27-64-64 0-36 28-64 64-64z m-170 0c36 0 64 28 64 64 0 37-28 64-64 64-37 0-64-27-64-64 0-36 27-64 64-64z m0-42c-49 0-150-26-150-75l0-53 299 0 0 53c0 49-100 75-149 75z m170 0c-6 0-12 0-21-2 26-18 43-43 43-73l0-53 128 0 0 53c0 49-101 75-150 75z"/>
<glyph unicode="&#57519;" d="M171 299l-64 0 0 64-43 0 0-64-64 0 0-43 64 0 0-64 43 0 0 64 64 0z m213-22c36 0 64 28 64 64 0 37-28 64-64 64-6 0-13-2-19-2 13-19 19-38 19-62 0-23-6-42-19-62 6 0 13-2 19-2z m-107 0c37 0 64 28 64 64 0 37-27 64-64 64-36 0-64-27-64-64 0-36 28-64 64-64z m141-47c17-15 30-36 30-59l0-43 64 0 0 43c0 32-51 53-94 59z m-141 5c-42 0-128-22-128-64l0-43 256 0 0 43c0 42-85 64-128 64z"/>
<glyph unicode="&#57520;" d="M245 469c-100 0-181-81-181-181 0-100 81-181 181-181l11 0 0-75c105 49 171 160 171 256 0 100-81 181-182 181z m-10-192l-22-42-32 0 22 42-32 0 0 64 64 0z m85 0l-21-42-32 0 21 42-32 0 0 64 64 0z"/>
<glyph unicode="&#57521;" d="M427 427l-342 0c-23 0-42-20-42-43l0-256c0-23 19-43 42-43l342 0c23 0 42 20 42 43l0 256c0 23-19 43-42 43z m-43-256l-85 68 0-68-171 0 0 170 171 0 0-68 85 68z"/>
<glyph unicode="&#57522;" d="M427 427l-261 0 86-86 47 0 0-47 12-12 73 59 0-132 85-85c0 2 0 2 0 4l0 256c0 23-19 43-42 43z m-378 64l-28-28 43-43c-13-6-21-21-21-36l0-256c0-23 19-43 42-43l314 0 43-42 27 27z m79-150l15 0 156-155 0-15-171 0z"/>
<glyph unicode="&#57523;" d="M256 491c-107 0-192-86-192-192l0-150c0-36 28-64 64-64l64 0 0 171-85 0 0 43c0 83 66 149 149 149 83 0 149-66 149-149l0-43-85 0 0-171 64 0c36 0 64 28 64 64l0 150c0 106-85 192-192 192z"/>
<glyph unicode="&#57524;" d="M256 491c-107 0-192-86-192-192l0-150c0-36 28-64 64-64l64 0 0 171-85 0 0 43c0 83 66 149 149 149 83 0 149-66 149-149l0-43-85 0 0-171 85 0 0-21-149 0 0-43 128 0c36 0 64 28 64 64l0 214c0 106-85 192-192 192z"/>
<glyph unicode="&#57525;" d="M256 469c-117 0-213-96-213-213 0-117 96-213 213-213 117 0 213 96 213 213 0 117-96 213-213 213z m21-362l-42 0 0 42 42 0z m45 164l-19-19c-17-15-26-28-26-60l-42 0 0 11c0 23 8 44 25 59l26 28c8 7 13 17 13 30 0 23-20 43-43 43-23 0-43-20-43-43l-42 0c0 47 38 85 85 85 47 0 85-38 85-85 0-19-8-36-19-49z"/>
<glyph unicode="&#57526;" d="M405 427l-298 0c-24 0-43-20-43-43l0-256c0-23 19-43 43-43l298 0c24 0 43 20 43 43l0 256c0 23-19 43-43 43z m-170-235l-32 0 0 43-43 0 0-43-32 0 0 128 32 0 0-53 43 0 0 53 32 0z m149 21c0-12-9-21-21-21l-17 0 0-32-32 0 0 32-15 0c-13 0-22 9-22 21l0 86c0 12 9 21 22 21l64 0c12 0 21-9 21-21z m-75 11l43 0 0 64-43 0z"/>
<glyph unicode="&#57527;" d="M267 469c-75 0-141-40-175-102l-49 49 0-139 138 0-59 60c27 53 81 90 145 90 87 0 160-73 160-160 0-88-73-160-160-160-71 0-128 44-152 106l-45 0c24-85 103-149 197-149 113 0 202 92 202 203 0 111-91 202-202 202z m-32-106l0-109 100-60 17 28-85 51 0 90z"/>
<glyph unicode="&#57528;" d="M213 85l0 128 86 0 0-128 106 0 0 171 64 0-213 192-213-192 64 0 0-171z"/>
<glyph unicode="&#57529;" d="M363 427l0 42-214 0 0-42-64 0 0-384 128 0 0 42 86 0 0-42 128 0 0 384z m-128-278l-43 0 0 43 43 0z m0 86l-43 0 0 42 43 0z m0 85l-43 0 0 43 43 0z m85-171l-43 0 0 43 43 0z m0 86l-43 0 0 42 43 0z m0 85l-43 0 0 43 43 0z"/>
<glyph unicode="&#57530;" d="M384 341l-21 0 0 43c0 60-47 107-107 107-60 0-107-47-107-107l0-43-21 0c-23 0-43-19-43-42l0-214c0-23 20-42 43-42l256 0c23 0 43 19 43 42l0 214c0 23-20 42-43 42z m-128-192c-23 0-43 20-43 43 0 23 20 43 43 43 23 0 43-20 43-43 0-23-20-43-43-43z m66 192l-132 0 0 43c0 36 30 66 66 66 36 0 66-30 66-66z"/>
<glyph unicode="&#57531;" d="M448 107l0 298c0 24-19 43-43 43l-298 0c-24 0-43-19-43-43l0-298c0-24 19-43 43-43l298 0c24 0 43 19 43 43z m-267 117l54-64 74 96 96-128-298 0z"/>
<glyph unicode="&#57532;" d="M192 448l-85-85 64 0 0-150 42 0 0 150 64 0z m149-299l0 150-42 0 0-150-64 0 85-85 85 85z"/>
<glyph unicode="&#57533;" d="M405 448l-298 0c-24 0-43-19-43-43l0-298c0-24 19-43 43-43l298 0c24 0 43 19 43 43l0 298c0 24-19 43-43 43z m0-256l-85 0c0-36-28-64-64-64-36 0-64 28-64 64l-85 0 0 213 298 0z m-64 107l-42 0 0 64-86 0 0-64-42 0 85-86z"/>
<glyph unicode="&#57534;" d="M256 469c-117 0-213-96-213-213 0-117 96-213 213-213 117 0 213 96 213 213 0 117-96 213-213 213z m21-320l-42 0 0 128 42 0z m0 171l-42 0 0 43 42 0z"/>
<glyph unicode="&#57535;" d="M235 149l42 0 0 128-42 0z m21 320c-117 0-213-96-213-213 0-117 96-213 213-213 117 0 213 96 213 213 0 117-96 213-213 213z m0-384c-94 0-171 77-171 171 0 94 77 171 171 171 94 0 171-77 171-171 0-94-77-171-171-171z m-21 235l42 0 0 43-42 0z"/>
<glyph unicode="&#57536;" d="M363 256c0 60-47 107-107 107l0-214c60 0 107 47 107 107z m42 192l-298 0c-24 0-43-19-43-43l0-298c0-24 19-43 43-43l298 0c24 0 43 19 43 43l0 298c0 24-19 43-43 43z m0-341l-149 0 0 42c-60 0-107 47-107 107 0 60 47 107 107 107l0 42 149 0z"/>
<glyph unicode="&#57537;" d="M201 448l0-82 61 0-94-220-77 0 0-82 220 0 0 82-61 0 94 220 77 0 0 82z"/>
<glyph unicode="&#57538;" d="M341 256l0 171 22 0 0 42-214 0 0-42 22 0 0-171-43-43 0-42 111 0 0-128 34 0 0 128 111 0 0 42z"/>
<glyph unicode="&#57539;" d="M427 405l-342 0c-23 0-42-19-42-42l0-214c0-23 19-42 42-42l342 0c23 0 42 19 42 42l0 214c0 23-19 42-42 42z m-192-64l42 0 0-42-42 0z m0-64l42 0 0-42-42 0z m-64 64l42 0 0-42-42 0z m0-64l42 0 0-42-42 0z m-22-42l-42 0 0 42 42 0z m0 64l-42 0 0 42 42 0z m192-150l-170 0 0 43 170 0z m0 86l-42 0 0 42 42 0z m0 64l-42 0 0 42 42 0z m64-64l-42 0 0 42 42 0z m0 64l-42 0 0 42 42 0z"/>
<glyph unicode="&#57540;" d="M331 299c17 0 32 15 32 32 0 17-15 32-32 32-17 0-32-15-32-32 0-17 15-32 32-32z m-150 0c17 0 32 15 32 32 0 17-15 32-32 32-17 0-32-15-32-32 0-17 15-32 32-32z m75-150c55 0 102 37 122 86l-244 0c20-49 67-86 122-86z m0 342c-117 0-213-96-213-214 0-117 96-213 213-213 117 0 213 96 213 213 0 118-96 214-213 214z m0-384c-94 0-171 76-171 170 0 94 77 171 171 171 94 0 171-77 171-171 0-94-77-170-171-170z"/>
<glyph unicode="&#57541;" d="M158 346l98-99 98 99 30-30-128-128-128 128z"/>
<glyph unicode="&#57542;" d="M329 169l-99 98 99 98-30 30-128-128 128-128z"/>
<glyph unicode="&#57543;" d="M183 164l99 96-99 98 30 30 128-128-128-128z"/>
<glyph unicode="&#57544;" d="M158 183l98 99 98-99 30 30-128 128-128-128z"/>
<glyph unicode="&#57545;" d="M448 277l-303 0 77 77-30 30-128-128 128-128 30 30-77 77 303 0z"/>
<glyph unicode="&#57546;" d="M256 333l98-98 30 30-128 128-128-128 30-30z m-128-205l256 0 0 43-256 0z"/>
<glyph unicode="&#57547;" d="M128 299c-23 0-43-20-43-43 0-23 20-43 43-43 23 0 43 20 43 43 0 23-20 43-43 43z m256 0c-23 0-43-20-43-43 0-23 20-43 43-43 23 0 43 20 43 43 0 23-20 43-43 43z m-128 0c-23 0-43-20-43-43 0-23 20-43 43-43 23 0 43 20 43 43 0 23-20 43-43 43z"/>
<glyph unicode="&#57548;" d="M427 448l-342 0c-23 0-42-19-42-43l0-213c0-23 19-43 42-43l342 0c23 0 42 20 42 43l0 213c0 24-19 43-42 43z m-192-64l42 0 0-43-42 0z m0-64l42 0 0-43-42 0z m-64 64l42 0 0-43-42 0z m0-64l42 0 0-43-42 0z m-22-43l-42 0 0 43 42 0z m0 64l-42 0 0 43 42 0z m192-149l-170 0 0 43 170 0z m0 85l-42 0 0 43 42 0z m0 64l-42 0 0 43 42 0z m64-64l-42 0 0 43 42 0z m0 64l-42 0 0 43 42 0z m-149-320l85 86-170 0z"/>
<glyph unicode="&#57549;" d="M405 363l0-86-281 0 77 77-30 30-128-128 128-128 30 30-77 77 324 0 0 128z"/>
<glyph unicode="&#57550;" d="M247 354l77-77-303 0 0-42 303 0-77-77 30-30 128 128-128 128z m180 30l0-256 42 0 0 256z"/>
<glyph unicode="&#57551;" d="M256 192c36 0 64 28 64 64l0 128c0 36-28 64-64 64-36 0-64-28-64-64l0-128c0-36 28-64 64-64z m113 64c0-64-53-109-113-109-60 0-113 45-113 109l-36 0c0-73 57-132 128-143l0-70 42 0 0 70c71 11 128 70 128 143z"/>
<glyph unicode="&#57552;" d="M375 388c-6 11-19 17-34 17l-234 0c-24 0-43-19-43-42l0-214c0-23 19-42 43-42l234 0c15 0 28 6 34 17l94 132z"/>
<glyph unicode="&#57553;" d="M375 388c-6 11-19 17-34 17l-234 0c-24 0-43-19-43-42l0-214c0-23 19-42 43-42l234 0c15 0 28 6 34 17l94 132z m-34-239l-234 0 0 214 234 0 75-107z"/>
<glyph unicode="&#57554;" d="M299 384l-81-107 61-81-34-25c-36 47-96 128-96 128l-128-171 470 0z"/>
<glyph unicode="&#57555;" d="M256 469c-117 0-213-96-213-213 0-117 96-213 213-213 117 0 213 96 213 213 0 117-96 213-213 213z m147-128l-62 0c-6 28-17 52-30 77 39-15 73-40 92-77z m-147 86c17-26 32-54 41-86l-82 0c9 30 24 60 41 86z m-164-214c-5 13-7 28-7 43 0 15 2 30 7 43l72 0c-2-15-2-28-2-43 0-15 2-28 2-43z m17-42l62 0c6-28 17-52 30-77-39 15-73 40-92 77z m62 170l-62 0c21 37 53 62 92 77-13-25-24-49-30-77z m85-256c-17 26-32 54-41 86l82 0c-9-30-24-60-41-86z m49 128l-98 0c-2 15-4 28-4 43 0 15 2 28 4 43l100 0c2-15 4-28 4-43 0-15-4-28-6-43z m6-119c13 23 24 49 30 77l62 0c-19-37-53-62-92-77z m39 119c2 15 2 28 2 43 0 15-2 28-2 43l72 0c5-13 7-28 7-43 0-15-2-30-7-43z"/>
<glyph unicode="&#57556;" d="M427 128c23 0 42 19 42 43l0 213c0 23-19 43-42 43l-342 0c-23 0-42-20-42-43l0-213c0-24 19-43 42-43l-85 0 0-43 512 0 0 43z m-342 256l342 0 0-213-342 0z"/>
<glyph unicode="&#57557;" d="M405 107l-298 0 0 298 149 0 0 43-149 0c-24 0-43-19-43-43l0-298c0-24 19-43 43-43l298 0c24 0 43 19 43 43l0 149-43 0z m-106 341l0-43 76 0-209-209 30-30 209 209 0-76 43 0 0 149z"/>
<glyph unicode="&#57558;" d="M171 235l170 0 0 42-170 0z m-88 21c0 49 39 87 88 87l64 0 0 41-64 0c-71 0-128-58-128-128 0-70 57-128 128-128l64 0 0 41-64 0c-49 0-88 38-88 87z m258 128l-64 0 0-41 64 0c49 0 88-38 88-87 0-49-39-87-88-87l-64 0 0-41 64 0c71 0 128 58 128 128 0 70-57 128-128 128z"/>
<glyph unicode="&#57559;" d="M64 235l43 0 0 42-43 0z m0-86l43 0 0 43-43 0z m0 171l43 0 0 43-43 0z m85-85l299 0 0 42-299 0z m0-86l299 0 0 43-299 0z m0 214l0-43 299 0 0 43z"/>
<glyph unicode="&#57560;" d="M405 469l-298 0c-24 0-43-19-43-42l0-299c0-23 19-43 43-43l85 0 64-64 64 64 85 0c24 0 43 20 43 43l0 299c0 23-19 42-43 42z m-128-341l-42 0 0 43 42 0z m45 164l-19-19c-17-15-26-28-26-60l-42 0 0 11c0 23 8 45 25 60l26 27c8 7 13 18 13 30 0 24-20 43-43 43-23 0-43-19-43-43l-42 0c0 47 38 86 85 86 47 0 85-39 85-86 0-19-8-36-19-49z"/>
<glyph unicode="&#57561;" d="M64 256l192 0 0-192 21 0 171 384-384-171z"/>
<glyph unicode="&#57562;" d="M320 277l0 128-64 64-64-64 0-42-128 0 0-299 384 0 0 213z m-171-170l-42 0 0 42 42 0z m0 85l-42 0 0 43 42 0z m0 85l-42 0 0 43 42 0z m128-170l-42 0 0 42 42 0z m0 85l-42 0 0 43 42 0z m0 85l-42 0 0 43 42 0z m0 86l-42 0 0 42 42 0z m128-256l-42 0 0 42 42 0z m0 85l-42 0 0 43 42 0z"/>
<glyph unicode="&#57563;" d="M446 277c-11 90-81 160-169 169l0 45-42 0 0-45c-24-2-47-9-69-19l32-32c20 6 39 10 58 10 83 0 149-66 149-149 0-19-4-38-10-58l32-32c10 22 17 43 21 69l43 0 0 42z m-382 143l43-42c-22-28-37-62-41-101l-45 0 0-42 45 0c11-90 81-160 169-169l0-45 42 0 0 45c39 4 73 19 101 43l42-43 28 28-356 354z m284-281c-26-22-58-32-92-32-83 0-149 66-149 149 0 34 10 66 32 92z"/>
<glyph unicode="&#57564;" d="M446 277c-11 90-81 160-169 169l0 45-42 0 0-45c-90-9-160-79-169-169l-45 0 0-42 45 0c11-90 81-160 169-169l0-45 42 0 0 45c90 11 160 81 169 169l45 0 0 42z m-190-170c-83 0-149 66-149 149 0 83 66 149 149 149 83 0 149-66 149-149 0-83-66-149-149-149z"/>
<glyph unicode="&#57565;" d="M384 341l-21 0 0 43c0 60-47 107-107 107-60 0-107-47-107-107l0-43-21 0c-23 0-43-19-43-42l0-214c0-23 20-42 43-42l256 0c23 0 43 19 43 42l0 214c0 23-20 42-43 42z m-128-192c-23 0-43 20-43 43 0 23 20 43 43 43 23 0 43-20 43-43 0-23-20-43-43-43z m66 192l-132 0 0 43c0 36 30 66 66 66 36 0 66-30 66-66z"/>
<glyph unicode="&#57566;" d="M256 149c23 0 43 20 43 43 0 23-20 43-43 43-23 0-43-20-43-43 0-23 20-43 43-43z m128 192l-21 0 0 43c0 60-47 107-107 107-60 0-107-47-107-107l41 0c0 36 30 66 66 66 36 0 66-30 66-66l0-43-194 0c-23 0-43-19-43-42l0-214c0-23 20-42 43-42l256 0c23 0 43 19 43 42l0 214c0 23-20 42-43 42z m0-256l-256 0 0 214 256 0z"/>
<glyph unicode="&#57567;" d="M384 341l-21 0 0 43c0 60-47 107-107 107-60 0-107-47-107-107l0-43-21 0c-23 0-43-19-43-42l0-214c0-23 20-42 43-42l256 0c23 0 43 19 43 42l0 214c0 23-20 42-43 42z m-128 109c36 0 66-30 66-66l0-43-130 0 0 43-2 0c0 36 30 66 66 66z m128-365l-256 0 0 214 256 0z m-128 64c23 0 43 20 43 43 0 23-20 43-43 43-23 0-43-20-43-43 0-23 20-43 43-43z"/>
<glyph unicode="&#57568;" d="M256 427l0 64-85-86 85-85 0 64c70 0 128-58 128-128 0-21-6-43-15-60l32-32c15 28 26 58 26 92 0 94-77 171-171 171z m0-299c-70 0-128 58-128 128 0 21 6 43 15 60l-32 32c-15-28-26-58-26-92 0-94 77-171 171-171l0-64 85 86-85 85z"/>
<glyph unicode="&#57569;" d="M427 427l-342 0c-23 0-42-20-42-43l0-256c0-23 19-43 42-43l342 0c23 0 42 20 42 43l0 256c0 23-19 43-42 43z m0-86l-171-106-171 106 0 43 171-107 171 107z"/>
<glyph unicode="&#57570;" d="M437 448c-2 0-2 0-4 0l-113-45-128 45-119-41c-5-2-9-4-9-10l0-322c0-7 4-11 11-11 2 0 2 0 4 0l113 45 128-45 119 41c5 2 9 6 9 10l0 322c0 7-4 11-11 11z m-117-341l-128 44 0 254 128-44z"/>
<glyph unicode="&#57571;" d="M469 384l43 43-43 42-42-42-43 42-43-42-42 42-43-42-43 42-42-42-43 42-43-42-42 42-43-42 43-43-43-43 43-42-43-43 43-43-43-42 43-43-43-43 43-42 42 42 43-42 43 42 42-42 43 42 43-42 42 42 43-42 43 42 42-42 43 42-43 43 43 43-43 42 43 43-43 43 43 42z m-42-43l-171-106-171 106 0 43 171-107 171 107z"/>
<glyph unicode="&#57572;" d="M320 320l-128 0 0-128 128 0z m-43-85l-42 0 0 42 42 0z m171 42l0 43-43 0 0 43c0 23-19 42-42 42l-43 0 0 43-43 0 0-43-42 0 0 43-43 0 0-43-43 0c-23 0-42-19-42-42l0-43-43 0 0-43 43 0 0-42-43 0 0-43 43 0 0-43c0-23 19-42 42-42l43 0 0-43 43 0 0 43 42 0 0-43 43 0 0 43 43 0c23 0 42 19 42 42l0 43 43 0 0 43-43 0 0 42z m-85-128l-214 0 0 214 214 0z"/>
<glyph unicode="&#57573;" d="M64 128l384 0 0 43-384 0z m0 107l384 0 0 42-384 0z m0 149l0-43 384 0 0 43z"/>
<glyph unicode="&#57574;" d="M427 469l-342 0c-23 0-42-19-42-42l0-384 85 85 299 0c23 0 42 19 42 43l0 256c0 23-19 42-42 42z m-43-256l-256 0 0 43 256 0z m0 64l-256 0 0 43 256 0z m0 64l-256 0 0 43 256 0z"/>
<glyph unicode="&#57575;" d="M427 469l-342 0c-23 0-42-19-42-42l0-384 85 85 299 0c23 0 42 19 42 43l0 256c0 23-19 42-42 42z"/>
<glyph unicode="&#57576;" d="M256 192c36 0 64 28 64 64l0 128c0 36-28 64-64 64-36 0-64-28-64-64l0-128c0-36 28-64 64-64z m113 64c0-64-53-109-113-109-60 0-113 45-113 109l-36 0c0-73 57-132 128-143l0-70 42 0 0 70c71 11 128 70 128 143z"/>
<glyph unicode="&#57577;" d="M256 192c36 0 64 28 64 64l0 128c0 36-28 64-64 64-36 0-64-28-64-64l0-128c0-36 28-64 64-64z m-26 194c0 15 11 26 26 26 15 0 26-11 26-26l0-132c0-15-11-26-26-26-15 0-26 11-26 26z m139-130c0-64-53-109-113-109-60 0-113 45-113 109l-36 0c0-73 57-132 128-143l0-70 42 0 0 70c71 11 128 70 128 143z"/>
<glyph unicode="&#57578;" d="M405 256l-36 0c0-15-4-30-8-43l25-25c13 19 19 42 19 68z m-85-4c0 2 0 2 0 4l0 128c0 36-28 64-64 64-36 0-64-28-64-64l0-4z m-228 175l-28-28 128-128 0-15c0-36 28-64 64-64 4 0 9 0 15 2l36-36c-15-7-32-11-49-11-60 0-113 45-113 109l-38 0c0-73 57-132 128-143l0-70 42 0 0 70c20 2 39 11 54 19l89-89 28 27z"/>
<glyph unicode="&#57579;" d="M427 469l-342 0c-23 0-42-19-42-42l0-384 85 85 299 0c23 0 42 19 42 43l0 256c0 23-19 42-42 42z m-320-256l74 96 54-64 74 96 96-128z"/>
<glyph unicode="&#57580;" d="M256 469c-117 0-213-96-213-213 0-117 96-213 213-213 117 0 213 96 213 213 0 117-96 213-213 213z m75-128c17 0 32-15 32-32 0-17-15-32-32-32-17 0-32 15-32 32 0 17 15 32 32 32z m-150 0c17 0 32-15 32-32 0-17-15-32-32-32-17 0-32 15-32 32 0 17 15 32 32 32z m75-213c-55 0-102 36-119 85l238 0c-17-49-64-85-119-85z"/>
<glyph unicode="&#57581;" d="M469 448l-320 0c-15 0-25-9-34-19l-115-173 115-173c9-10 22-19 36-19l318 0c24 0 43 19 43 43l0 298c0 24-19 43-43 43z m-277-224c-17 0-32 15-32 32 0 17 15 32 32 32 17 0 32-15 32-32 0-17-15-32-32-32z m107 0c-17 0-32 15-32 32 0 17 15 32 32 32 17 0 32-15 32-32 0-17-15-32-32-32z m106 0c-17 0-32 15-32 32 0 17 15 32 32 32 17 0 32-15 32-32 0-17-15-32-32-32z"/>
<glyph unicode="&#57582;" d="M128 299c-23 0-43-20-43-43 0-23 20-43 43-43 23 0 43 20 43 43 0 23-20 43-43 43z m256 0c-23 0-43-20-43-43 0-23 20-43 43-43 23 0 43 20 43 43 0 23-20 43-43 43z m-128 0c-23 0-43-20-43-43 0-23 20-43 43-43 23 0 43 20 43 43 0 23-20 43-43 43z"/>
<glyph unicode="&#57583;" d="M256 341c23 0 43 20 43 43 0 23-20 43-43 43-23 0-43-20-43-43 0-23 20-43 43-43z m0-42c-23 0-43-20-43-43 0-23 20-43 43-43 23 0 43 20 43 43 0 23-20 43-43 43z m0-128c-23 0-43-20-43-43 0-23 20-43 43-43 23 0 43 20 43 43 0 23-20 43-43 43z"/>
<glyph unicode="&#57584;" d="M277 489l0-169 150 0c0 87-66 158-150 169z m-192-297c0-94 77-171 171-171 94 0 171 77 171 171l0 85-342 0z m150 297c-84-11-150-82-150-169l150 0z"/>
<glyph unicode="&#57585;" d="M384 427l43-86-64 0-43 86-43 0 43-86-64 0-43 86-42 0 42-86-64 0-42 86-22 0c-23 0-42-20-42-43l0-256c0-23 19-43 42-43l342 0c23 0 42 20 42 43l0 299z"/>
<glyph unicode="&#57586;" d="M405 448l-298 0c-24 0-43-19-43-43l0-298c0-24 19-43 43-43l298 0c24 0 43 19 43 43l0 298c0 24-19 43-43 43z m-149-320c-70 0-128 58-128 128 0 70 58 128 128 128 70 0 128-58 128-128 0-70-58-128-128-128z m85 128c0-47-38-85-85-85-47 0-85 38-85 85 0 47 38 85 85 85 47 0 85-38 85-85z"/>
<glyph unicode="&#57587;" d="M256 469c-117 0-213-96-213-213 0-117 96-213 213-213 117 0 213 96 213 213 0 117-96 213-213 213z m0-64c34 0 64-10 90-30l-47-46c-13 8-28 12-43 12-47 0-85-38-85-85 0-23 8-45 25-60l-45-45c-27 26-44 64-44 105 0 83 66 149 149 149z m105-254l-45 45c15 15 25 37 25 60 0 15-4 30-12 43l46 47c20-26 30-56 30-90 0-41-17-79-44-105z"/>
<glyph unicode="&#57588;" d="M43 43l426 0 0 426z m384 42l-71 0 0 209 71 73z"/>
<glyph unicode="&#57589;" d="M256 469c-96 0-186-32-256-85l256-341 256 341c-70 53-160 85-256 85z m0-113c-55 0-107-15-151-40l-43 57c57 34 124 54 194 54 70 0 137-20 194-54l-43-57c-44 25-96 40-151 40z"/>
<glyph unicode="&#57590;" d="M433 412l-34 36-36-36-37 36-36-36-34 36-36-36-34 36-37-36-36 36-34-36-36 36 0-341c0-24 19-43 42-43l342 0c23 0 42 19 42 43l0 341z m-177-305l-171 0 0 149 171 0z m171 0l-150 0 0 21 150 0z m0 42l-150 0 0 22 150 0z m0 43l-150 0 0 21 150 0z m0 43l-150 0 0 21 150 0z m0 42l-342 0 0 64 342 0z"/>
<glyph unicode="&#57591;" d="M427 469l-342 0c-23 0-42-19-42-42l0-342c0-23 19-42 42-42l342 0c23 0 42 19 42 42l0 342c0 23-19 42-42 42z m0-384l-342 0 0 342 342 0z m-43 299l-107 0c-23 0-42-19-42-43l0-49c-13-6-22-21-22-36 0-23 20-43 43-43 23 0 43 20 43 43 0 15-9 30-22 36l0 49 64 0 0-170-170 0 0 170 42 0 0 43-85 0 0-256 256 0z"/>
<glyph unicode="&#57592;" d="M245 43c24 0 43 19 43 42l-85 0c0-23 19-42 42-42z m139 128l0 117c0 66-45 119-107 134l0 15c0 17-15 32-32 32-17 0-32-15-32-32l0-15c-62-15-106-68-106-134l0-117-43-43 0-21 363 0 0 21z"/>
<glyph unicode="&#57593;" d="M245 43c24 0 43 19 43 42l-85 0c0-23 19-42 42-42z m139 128l0 117c0 66-45 119-107 134l0 15c0 17-15 32-32 32-17 0-32-15-32-32l0-15c-62-15-106-68-106-134l0-117-43-43 0-21 363 0 0 21z m-43-22l-192 0 0 139c0 53 43 96 96 96 54 0 96-43 96-96z"/>
<glyph unicode="&#57594;" d="M245 43c24 0 43 19 43 42l-85 0c0-23 19-42 42-42z m139 245c0 66-45 119-107 134l0 15c0 17-15 32-32 32-17 0-32-15-32-32l0-15c-10-2-21-6-30-10l201-201z m-6-181l42-43 28 28-356 356-28-28 62-62c-13-21-19-44-19-70l0-117-43-43 0-21z"/>
<glyph unicode="&#57595;" d="M141 435l-30 30c-51-38-85-98-90-166l43 0c4 57 32 106 77 136z m286-136l42 0c-4 68-36 128-87 166l-30-30c43-30 70-79 75-136z m-43-11c0 66-45 119-107 134l0 15c0 17-15 32-32 32-17 0-32-15-32-32l0-15c-62-15-106-68-106-134l0-117-43-43 0-21 363 0 0 21-43 43z m-139-245c2 0 7 0 9 0 15 2 25 12 30 25 2 5 4 11 4 17l-85 0c0-23 19-42 42-42z"/>
<glyph unicode="&#57596;" d="M245 43c24 0 43 19 43 42l-85 0c0-23 19-42 42-42z m139 128l0 117c0 66-45 119-107 134l0 15c0 17-15 32-32 32-17 0-32-15-32-32l0-15c-62-15-106-68-106-134l0-117-43-43 0-21 363 0 0 21z m-85 132l-60-73 60 0 0-38-107 0 0 38 60 73-60 0 0 38 107 0z"/>
<glyph unicode="&#57597;" d="M64 405l0-128 107 0-22 86 86-22 0 107-128 0c-24 0-43-19-43-43z m107-170l-107 0 0-128c0-24 19-43 43-43l128 0 0 102-86-17z m192-86l-86 17 0-102 128 0c24 0 43 19 43 43l0 128-102 0z m42 299l-128 0 0-107 86 22-22-86 107 0 0 128c0 24-19 43-43 43z"/>
<glyph unicode="&#57598;" d="M256 448c-107 0-192-85-192-192 0-107 85-192 192-192 17 0 32 15 32 32 0 9-2 15-9 21-4 7-8 13-8 22 0 17 15 32 32 32l38 0c60 0 107 47 107 106 0 94-85 171-192 171z m-117-192c-17 0-32 15-32 32 0 17 15 32 32 32 17 0 32-15 32-32 0-17-15-32-32-32z m64 85c-17 0-32 15-32 32 0 17 15 32 32 32 17 0 32-15 32-32 0-17-15-32-32-32z m106 0c-17 0-32 15-32 32 0 17 15 32 32 32 17 0 32-15 32-32 0-17-15-32-32-32z m64-85c-17 0-32 15-32 32 0 17 15 32 32 32 17 0 32-15 32-32 0-17-15-32-32-32z"/>
<glyph unicode="&#57599;" d="M491 128l0 256c0 23-20 43-43 43l-384 0c-23 0-43-20-43-43l0-256c0-23 20-43 43-43l384 0c23 0 43 20 43 43z m-310 117l54-64 74 96 96-128-298 0z"/>
<glyph unicode="&#57600;" d="M427 427l-69 0-38 42-128 0-38-42-69 0c-23 0-42-20-42-43l0-256c0-23 19-43 42-43l342 0c23 0 42 20 42 43l0 256c0 23-19 43-42 43z m-171-64c34 0 66-17 85-43l-85 0c-36 0-64-28-64-64 0-9 2-15 4-21l-45 0c-2 6-2 15-2 21 0 60 47 107 107 107z m0-214c-34 0-66 17-85 43l85 0c36 0 64 28 64 64 0 9-2 15-4 21l45 0c2-6 2-15 2-21 0-60-47-107-107-107z"/>
<glyph unicode="&#57601;" d="M128 107l85 0 0 298-85 0z m171 298l0-298 85 0 0 298z"/>
<glyph unicode="&#57602;" d="M256 469c-117 0-213-96-213-213 0-117 96-213 213-213 117 0 213 96 213 213 0 117-96 213-213 213z m-21-298l-43 0 0 170 43 0z m85 0l-43 0 0 170 43 0z"/>
<glyph unicode="&#57603;" d="M192 171l43 0 0 170-43 0z m64 298c-117 0-213-96-213-213 0-117 96-213 213-213 117 0 213 96 213 213 0 117-96 213-213 213z m0-384c-94 0-171 77-171 171 0 94 77 171 171 171 94 0 171-77 171-171 0-94-77-171-171-171z m21 86l43 0 0 170-43 0z"/>
<glyph unicode="&#57604;" d="M341 277c37 0 64 28 64 64 0 37-27 64-64 64-36 0-64-27-64-64 0-36 28-64 64-64z m-170 0c36 0 64 28 64 64 0 37-28 64-64 64-37 0-64-27-64-64 0-36 27-64 64-64z m0-42c-49 0-150-26-150-75l0-53 299 0 0 53c0 49-100 75-149 75z m170 0c-6 0-12 0-21-2 26-18 43-43 43-73l0-53 128 0 0 53c0 49-101 75-150 75z"/>
<glyph unicode="&#57605;" d="M256 256c47 0 85 38 85 85 0 47-38 86-85 86-47 0-85-39-85-86 0-47 38-85 85-85z m0-43c-58 0-171-27-171-85l0-43 342 0 0 43c0 58-113 85-171 85z"/>
<glyph unicode="&#57606;" d="M320 256c47 0 85 38 85 85 0 47-38 86-85 86-47 0-85-39-85-86 0-47 38-85 85-85z m-192 43l0 64-43 0 0-64-64 0 0-43 64 0 0-64 43 0 0 64 64 0 0 43z m192-86c-58 0-171-27-171-85l0-43 342 0 0 43c0 58-113 85-171 85z"/>
<glyph unicode="&#57607;" d="M405 469l-298 0c-24 0-43-19-43-42l0-299c0-23 19-43 43-43l85 0 64-64 64 64 85 0c24 0 43 20 43 43l0 299c0 23-19 42-43 42z m-149-70c32 0 58-26 58-58 0-32-26-57-58-57-32 0-58 25-58 57 0 32 26 58 58 58z m128-228l-256 0 0 19c0 43 85 66 128 66 43 0 128-23 128-66z"/>
<glyph unicode="&#57608;" d="M256 386c26 0 45-19 45-45 0-25-19-44-45-44-26 0-45 19-45 44 0 26 19 45 45 45z m0-192c64 0 130-32 130-45l0-23-260 0 0 23c0 13 66 45 130 45z m0 233c-47 0-85-39-85-86 0-47 38-85 85-85 47 0 85 38 85 85 0 47-38 86-85 86z m0-192c-58 0-171-28-171-86l0-64 342 0 0 64c0 58-113 86-171 86z"/>
<glyph unicode="&#57609;" d="M141 282c30-60 81-109 141-141l47 47c6 6 14 8 21 4 23-9 49-13 77-13 12 0 21-8 21-21l0-73c0-12-9-21-21-21-201 0-363 162-363 363 0 12 9 21 21 21l75 0c13 0 21-9 21-21 0-26 5-52 13-77 2-7 0-15-4-21z"/>
<glyph unicode="&#57610;" d="M363 491l-214 0c-23 0-42-20-42-43l0-384c0-23 19-43 42-43l214 0c23 0 42 20 42 43l0 384c0 23-19 43-42 43z m0-384l-214 0 0 298 214 0z"/>
<glyph unicode="&#57611;" d="M314 309l49 49 0-81 10 0 62 62-47 45 45 45-60 62-10 0 0-81-49 49-15-15 59-60-59-60z m70 141l19-19-19-21z m0-92l19-19-19-21z m43-177c-26 0-52 5-77 13-7 2-15 0-21-4l-47-47c-60 30-109 81-141 141l47 47c6 6 8 15 4 21-6 23-11 49-11 75 0 12-8 21-21 21l-75 0c-12 0-21-9-21-21 0-201 162-363 363-363 12 0 21 9 21 21l0 75c0 13-9 21-21 21z"/>
<glyph unicode="&#57612;" d="M384 277l107 107-107 107 0-64-85 0 0-86 85 0z m43-96c-26 0-52 5-77 13-7 2-15 0-21-4l-47-47c-60 30-109 81-141 141l47 47c6 6 8 15 4 21-6 23-11 49-11 75 0 12-8 21-21 21l-75 0c-12 0-21-9-21-21 0-201 162-363 363-363 12 0 21 9 21 21l0 75c0 13-9 21-21 21z"/>
<glyph unicode="&#57613;" d="M427 181c-26 0-52 5-77 13-7 2-15 0-21-4l-47-47c-60 30-109 81-141 141l47 47c6 6 8 15 4 21-6 23-11 49-11 75 0 12-8 21-21 21l-75 0c-12 0-21-9-21-21 0-201 162-363 363-363 12 0 21 9 21 21l0 75c0 13-9 21-21 21z m-22 75l43 0c0 107-85 192-192 192l0-43c83 0 149-66 149-149z m-85 0l43 0c0 60-47 107-107 107l0-43c36 0 64-28 64-64z"/>
<glyph unicode="&#57614;" d="M427 181c-26 0-52 5-77 13-7 2-15 0-21-4l-47-47c-60 30-109 81-141 141l47 47c6 6 8 15 4 21-6 23-11 49-11 75 0 12-8 21-21 21l-75 0c-12 0-21-9-21-21 0-201 162-363 363-363 12 0 21 9 21 21l0 75c0 13-9 21-21 21z m0 246l0 10c0 30-24 54-54 54-30 0-53-24-53-54l0-10c-13 0-21-9-21-22l0-85c0-13 8-21 21-21l107 0c12 0 21 8 21 21l0 85c0 13-9 22-21 22z m-17 0l-73 0 0 10c0 20 17 37 36 37 20 0 37-17 37-37z"/>
<glyph unicode="&#57615;" d="M139 395l117-118 149 150-21 21-128-128-96 96 75 0 0 32-128 0 0-128 32 0z m367-239c-64 62-154 100-250 100-96 0-186-38-250-100-4-5-6-9-6-15 0-7 2-11 6-15l54-53c4-5 8-7 15-7 6 0 10 2 15 7 17 14 36 29 57 40 7 4 13 11 13 19l0 66c30 11 64 15 98 15 34 0 68-6 98-15l0-66c0-8 5-15 13-19 21-11 41-23 58-40 4-5 8-7 15-7 6 0 10 2 15 7l53 53c4 4 6 8 6 15 0 6-6 10-10 15z"/>
<glyph unicode="&#57616;" d="M363 448l-43 0 0-149 43 0z m64-267c-26 0-52 5-77 13-7 2-15 0-21-4l-47-47c-60 30-109 81-141 141l47 47c6 6 8 15 4 21-6 23-11 49-11 75 0 12-8 21-21 21l-75 0c-12 0-21-9-21-21 0-201 162-363 363-363 12 0 21 9 21 21l0 75c0 13-9 21-21 21z m-22 267l0-149 43 0 0 149z"/>
<glyph unicode="&#57617;" d="M448 107l0 298c0 24-19 43-43 43l-298 0c-24 0-43-19-43-43l0-298c0-24 19-43 43-43l298 0c24 0 43 19 43 43z m-267 117l54-64 74 96 96-128-298 0z"/>
<glyph unicode="&#57618;" d="M384 469l-128 0 0-149-53 32-54-32 0 149-21 0c-23 0-43-19-43-42l0-342c0-23 20-42 43-42l256 0c23 0 43 19 43 42l0 342c0 23-20 42-43 42z m-256-362l64 83 45-56 64 84 83-111z"/>
<glyph unicode="&#57619;" d="M491 149l0 299c0 23-20 43-43 43l-299 0c-23 0-42-20-42-43l0-299c0-23 19-42 42-42l299 0c23 0 43 19 43 42z m-267 118l53-64 75 96 96-128-299 0z m-203 138l0-341c0-23 20-43 43-43l341 0 0 43-341 0 0 341z"/>
<glyph unicode="&#57620;" d="M256 469c-83 0-149-66-149-149 0-111 149-277 149-277 0 0 149 166 149 277 0 83-66 149-149 149z m0-202c-30 0-53 23-53 53 0 30 23 53 53 53 30 0 53-23 53-53 0-30-23-53-53-53z"/>
<glyph unicode="&#57621;" d="M171 405l0-298 234 149z"/>
<glyph unicode="&#57622;" d="M256 469c-117 0-213-96-213-213 0-117 96-213 213-213 117 0 213 96 213 213 0 117-96 213-213 213z m-43-309l0 192 128-96z"/>
<glyph unicode="&#57623;" d="M213 160l128 96-128 96z m43 309c-117 0-213-96-213-213 0-117 96-213 213-213 117 0 213 96 213 213 0 117-96 213-213 213z m0-384c-94 0-171 77-171 171 0 94 77 171 171 171 94 0 171-77 171-171 0-94-77-171-171-171z"/>
<glyph unicode="&#57624;" d="M427 384l-86 0 0 43-42 42-86 0-42-42 0-43-86 0c-23 0-42-19-42-43l0-234c0-24 19-43 42-43l342 0c23 0 42 19 42 43l0 234c0 24-19 43-42 43z m-214 43l86 0 0-43-86 0z m43-320l-107 106 64 0 0 86 86 0 0-86 64 0z"/>
<glyph unicode="&#57625;" d="M427 384l-86 0 0 43-42 42-86 0-42-42 0-43-86 0c-23 0-42-19-42-43l0-234c0-24 19-43 42-43l342 0c23 0 42 19 42 43l0 234c0 24-19 43-42 43z m-214 43l86 0 0-43-86 0z m11-288l-75 74 30 30 45-45 111 111 30-30z"/>
<glyph unicode="&#57626;" d="M213 341l-42 0 0-85-86 0 0-43 86 0 0-85 42 0 0 85 86 0 0 43-86 0z m96 41l0-39 54 11 0-226 42 0 0 277z"/>
<glyph unicode="&#57627;" d="M405 448l-298 0c-24 0-43-19-43-43l0-298c0-24 19-43 43-43l298 0c24 0 43 19 43 43l0 298c0 24-19 43-43 43z m-213-299l-43 0 0 150 43 0z m85 0l-42 0 0 214 42 0z m86 0l-43 0 0 86 43 0z"/>
<glyph unicode="&#57628;" d="M405 427l-85 0-169-269-55 98 96 171-85 0-96-171 96-171 85 0 169 269 55-98-96-171 85 0 96 171z"/>
<glyph unicode="&#57629;" d="M256 252c26 0 47 21 47 47 0 25-21 47-47 47-26 0-47-22-47-47 0-26 21-47 47-47z m96-86c0 32-64 47-96 47-32 0-96-17-96-47l0-17 192 0z m53 282l-298 0c-24 0-43-19-43-43l0-298c0-24 19-43 43-43l298 0c24 0 43 19 43 43l0 298c0 24-19 43-43 43z m0-341l-298 0 0 298 298 0z"/>
<glyph unicode="&#57630;" d="M427 469l-342 0c-23 0-42-19-42-42l0-342c0-23 19-42 42-42l342 0c23 0 42 19 42 42l0 342c0 23-19 42-42 42z m-86-149l0-21c0-13 9-22 22-22 12 0 21-8 21-21l0-64c0-36-28-64-64-64l-128 0c-36 0-64 28-64 64l0 149c0 37 28 64 64 64l85 0c37 0 64-27 64-64z m-128-21l56 0c13 0 21 8 21 21 0 13-8 21-21 21l-56 0c-12 0-21-8-21-21 0-13 9-21 21-21z m86-64l-86 0c-12 0-21-9-21-22 0-12 9-21 21-21l86 0c12 0 21 9 21 21 0 13-9 22-21 22z"/>
<glyph unicode="&#57631;" d="M427 469l-342 0c-23 0-42-19-42-42l0-342c0-23 19-42 42-42l342 0c23 0 42 19 42 42l0 342c0 23-19 42-42 42z m-22-42l0-64-42 0c-13 0-22-9-22-22l0-42 64 0 0-64-64 0 0-150-64 0 0 150-42 0 0 64 42 0 0 53c0 41 34 75 75 75z"/>
<glyph unicode="&#57632;" d="M239 322c0 21-13 64-45 64-13 0-28-8-28-36 0-26 13-62 43-62 0 0 30 2 30 34z m-13-104c-2 0-4 0-6 0-7 0-26-3-39-7-15-4-32-15-32-36 0-24 22-47 64-47 32 0 52 21 52 43 0 15-11 25-39 47z m201 251l-342 0c-23 0-42-19-42-42l0-342c0-23 19-42 42-42l342 0c23 0 42 19 42 42l0 342c0 23-19 42-42 42z m-233-367c-60 0-87 35-87 64 0 11 2 35 32 52 17 10 38 17 66 19-4 4-7 10-7 21 0 4 0 7 3 11l-9 0c-43 0-68 32-68 64 0 36 27 77 87 77l90 0-24-24-15 0c9-8 20-23 20-47 0-30-15-45-35-57-4-3-8-9-8-15 0-7 4-11 8-13 3-2 7-4 11-7 17-12 41-27 41-61 0-39-28-84-105-84z m211 154l-42 0 0-43-22 0 0 43-42 0 0 21 42 0 0 43 22 0 0-43 42 0z"/>
<glyph unicode="&#57633;" d="M427 469l-342 0c-23 0-42-19-42-42l0-342c0-23 19-42 42-42l342 0c23 0 42 19 42 42l0 342c0 23-19 42-42 42z m-171-128c47 0 85-38 85-85 0-47-38-85-85-85-47 0-85 38-85 85 0 47 38 85 85 85z m-160-256c-6 0-11 5-11 11l0 181 45 0c-2-6-2-15-2-21 0-70 58-128 128-128 70 0 128 58 128 128 0 6 0 15-2 21l45 0 0-181c0-6-5-11-11-11z m331 288c0-6-5-10-11-10l-43 0c-6 0-10 4-10 10l0 43c0 6 4 11 10 11l43 0c6 0 11-5 11-11z"/>
<glyph unicode="&#57634;" d="M427 469l-342 0c-23 0-42-19-42-42l0-342c0-23 19-42 42-42l342 0c23 0 42 19 42 42l0 342c0 23-19 42-42 42z m-256-362l-64 0 0 192 64 0z m-32 228c-22 0-39 17-39 38 0 22 17 39 39 39 21 0 38-17 38-39 0-21-17-38-38-38z m266-228l-64 0 0 113c0 17-15 32-32 32-17 0-32-15-32-32l0-113-64 0 0 192 64 0 0-26c11 17 34 30 54 30 40 0 74-34 74-75z"/>
<glyph unicode="&#57635;" d="M427 469l-342 0c-23 0-42-19-42-42l0-342c0-23 19-42 42-42l342 0c23 0 42 19 42 42l0 342c0 23-19 42-42 42z m-150-303c-17 0-34 7-44 20l-22-69-2-4c-4-6-11-11-19-11-13 0-24 11-24 24 0 2 0 2 0 2l3 4 38 120c0 0-4 13-4 32 0 36 19 47 36 47 15 0 30-7 30-28 0-28-19-43-19-64 0-15 12-28 27-28 49 0 69 39 69 73 0 47-41 85-90 85-49 0-90-38-90-85 0-15 5-28 11-41 2-4 2-6 2-10 0-13-8-22-21-22-9 0-15 4-19 11-11 19-17 40-17 64 0 70 59 128 132 128 72 0 132-58 132-128 2-60-32-120-109-120z"/>
<glyph unicode="&#57636;" d="M427 469l-342 0c-23 0-42-19-42-42l0-342c0-23 19-42 42-42l342 0c23 0 42 19 42 42l0 342c0 23-19 42-42 42z m-86-192l-64 0c0 0 0-81 0-83 0-15 2-23 24-23 19 0 40 0 40 0l0-64c0 0-21-2-44-2-56 0-84 34-84 72 0 26 0 100 0 100l-42 0 0 60c51 4 55 43 59 68l47 0 0-64 64 0z"/>
<glyph unicode="&#57637;" d="M427 469l-342 0c-23 0-42-19-42-42l0-342c0-23 19-42 42-42l342 0c23 0 42 19 42 42l0 342c0 23-19 42-42 42z m-49-155c-3-99-64-167-158-171-39-2-66 11-92 26 28-5 64 6 83 23-28 2-45 17-53 41 8-3 17 0 23 0-25 8-42 23-44 57 6-4 14-6 23-6-19 10-32 51-17 77 28-30 62-56 117-60-15 60 66 92 98 51 15 2 26 9 37 13-5-15-13-24-24-32 11 2 22 4 30 8-2-10-13-19-23-27z"/>
<glyph unicode="&#57638;" d="M405 341l-298 0c-37 0-64-27-64-64l0-128 85 0 0-85 256 0 0 85 85 0 0 128c0 37-27 64-64 64z m-64-234l-170 0 0 106 170 0z m64 149c-12 0-21 9-21 21 0 13 9 22 21 22 13 0 22-9 22-22 0-12-9-21-22-21z m-21 192l-256 0 0-85 256 0z"/>
<glyph unicode="&#57639;" d="M256 469c-117 0-213-96-213-213 0-117 96-213 213-213 117 0 213 96 213 213 0 117-96 213-213 213z m-21-382c-84 11-150 84-150 169 0 13 2 26 5 38l102-102 0-21c0-24 19-43 43-43z m147 54c-7 17-21 30-41 30l-21 0 0 64c0 12-9 21-21 21l-128 0 0 43 42 0c13 0 22 8 22 21l0 43 42 0c24 0 43 19 43 42l0 9c62-26 107-88 107-158 0-45-17-85-45-115z"/>
<glyph unicode="&#57640;" d="M64 405l-43 0 0-341c0-23 20-43 43-43l341 0 0 43-341 0z m384 86l-299 0c-23 0-42-20-42-43l0-299c0-23 19-42 42-42l299 0c23 0 43 19 43 42l0 299c0 23-20 43-43 43z m-43-214l-85 0 0-85-43 0 0 85-85 0 0 43 85 0 0 85 43 0 0-85 85 0z"/>
<glyph unicode="&#57641;" d="M256 469c-117 0-213-96-213-213 0-117 96-213 213-213 117 0 213 96 213 213 0 117-96 213-213 213z m0-384c-94 0-171 77-171 171 0 94 77 171 171 171 94 0 171-77 171-171 0-94-77-171-171-171z"/>
<glyph unicode="&#57642;" d="M256 363c-60 0-107-47-107-107 0-60 47-107 107-107 60 0 107 47 107 107 0 60-47 107-107 107z m0 106c-117 0-213-96-213-213 0-117 96-213 213-213 117 0 213 96 213 213 0 117-96 213-213 213z m0-384c-94 0-171 77-171 171 0 94 77 171 171 171 94 0 171-77 171-171 0-94-77-171-171-171z"/>
<glyph unicode="&#57643;" d="M384 149l-256 0 0 43 256 0z m0 86l-256 0 0 42 256 0z m0 85l-256 0 0 43 256 0z m-320-277l32 32 32-32 32 32 32-32 32 32 32-32 32 32 32-32 32 32 32-32 32 32 32-32 0 426-32-32-32 32-32-32-32 32-32-32-32 32-32-32-32 32-32-32-32 32-32-32-32 32z"/>
<glyph unicode="&#57644;" d="M375 375c-29 32-72 52-119 52-94 0-171-77-171-171 0-94 77-171 171-171 79 0 145 56 164 128l-45 0c-17-49-64-85-119-85-70 0-128 58-128 128 0 70 58 128 128 128 36 0 66-15 90-38l-69-69 150 0 0 150z"/>
<glyph unicode="&#57645;" d="M361 235c27 27 44 64 44 106 0 84-66 150-149 150-83 0-149-66-149-150 0-42 17-79 44-106l75-75-98-98 30-30z m-30 32l-75-77-75 75c-19 21-32 46-32 76 0 60 47 107 107 107 60 0 107-47 107-107 0-30-13-55-32-74z m-45-167l68-68 30 30-68 68z"/>
<glyph unicode="&#57646;" d="M405 235l-298 0 0 42 298 0z"/>
<glyph unicode="&#57647;" d="M256 469c-117 0-213-96-213-213 0-117 96-213 213-213 117 0 213 96 213 213 0 117-96 213-213 213z m107-234l-214 0 0 42 214 0z"/>
<glyph unicode="&#57648;" d="M149 277l0-42 214 0 0 42z m107 192c-117 0-213-96-213-213 0-117 96-213 213-213 117 0 213 96 213 213 0 117-96 213-213 213z m0-384c-94 0-171 77-171 171 0 94 77 171 171 171 94 0 171-77 171-171 0-94-77-171-171-171z"/>
<glyph unicode="&#57649;" d="M256 405l0 86-107-107 107-107 0 86c70 0 128-58 128-128 0-71-58-128-128-128-70 0-128 57-128 128l-43 0c0-94 77-171 171-171 94 0 171 77 171 171 0 94-77 170-171 170z"/>
<glyph unicode="&#57650;" d="M213 320l0 85-149-149 149-149 0 87c107 0 182-34 235-109-21 107-85 214-235 235z"/>
<glyph unicode="&#57651;" d="M149 341l0 64-149-149 149-149 0 64-85 85z m128-21l0 85-149-149 149-149 0 87c107 0 182-34 235-109-21 107-85 214-235 235z"/>
<glyph unicode="&#57652;" d="M335 448l-158 0-113-113 0-160 113-111 160 0 113 113 0 158z m-79-305c-15 0-28 13-28 28 0 15 13 27 28 27 15 0 28-12 28-27 0-15-13-28-28-28z m21 92l-42 0 0 128 42 0z"/>
<glyph unicode="&#57653;" d="M506 156c-64 62-154 100-250 100-96 0-186-38-250-100-4-5-6-9-6-15 0-7 2-11 6-15l54-53c4-5 8-7 15-7 6 0 10 2 15 7 17 14 36 29 57 40 7 4 13 11 13 19l0 66c30 11 64 15 98 15 34 0 66-6 98-15l0-66c0-8 5-15 13-19 21-11 41-23 58-40 4-5 8-7 15-7 6 0 10 2 15 7l53 53c4 4 6 8 6 15-4 6-6 10-10 15z m-54 222l-30 29-76-76 29-30c0 2 73 77 77 77z m-175 91l-42 0 0-106 42 0z m-140-166l29 30-74 77-32-32c4 0 77-75 77-75z"/>
<glyph unicode="&#57654;" d="M151 331l-29 30c-20-26-32-54-35-84l43 0c2 20 11 37 21 54z m-21-96l-43 0c5-30 15-58 35-84l29 30c-10 17-19 34-21 54z m21-113c26-20 54-30 84-35l0 43c-20 2-37 11-54 21z m126 303l0 66-96-96 96-96 0 83c60-11 107-62 107-126 0-64-47-115-107-126l0-43c84 11 150 84 150 169 0 85-66 158-150 169z"/>
<glyph unicode="&#57655;" d="M331 395l-96 96 0-66c-84-11-150-82-150-169 0-87 66-158 150-169l0 43c-60 11-107 62-107 126 0 64 47 115 107 126l0-83z m94-118c-5 30-15 58-35 84l-29-30c10-17 19-34 21-54z m-148-147l0-43c30 5 58 15 84 35l-30 29c-17-10-34-19-54-21z m84 51l29-30c20 26 32 54 35 84l-43 0c-2-20-11-37-21-54z"/>
<glyph unicode="&#57656;" d="M256 469c-117 0-213-96-213-213 0-117 96-213 213-213 117 0 213 96 213 213 0 117-96 213-213 213z m53-170l-89-90-49 47-71-70c-8 21-15 44-15 70 0 94 77 171 171 171 94 0 171-77 171-171 0-21-5-43-13-62z"/>
<glyph unicode="&#57657;" d="M363 448l-256 0c-24 0-43-19-43-43l0-298c0-24 19-43 43-43l298 0c24 0 43 19 43 43l0 256z m-107-341c-36 0-64 27-64 64 0 36 28 64 64 64 36 0 64-28 64-64 0-37-28-64-64-64z m64 213l-213 0 0 85 213 0z"/>
<glyph unicode="&#57658;" d="M256 469c-117 0-213-96-213-213 0-117 96-213 213-213 117 0 213 96 213 213 0 117-96 213-213 213z m0-384c-94 0-171 77-171 171 0 94 77 171 171 171 94 0 171-77 171-171 0-94-77-171-171-171z m11 278l-32 0 0-128 111-69 17 28-96 58z"/>
<glyph unicode="&#57659;" d="M107 230l0-85 149-81 149 81 0 85-149-81z m149 218l-235-128 235-128 192 105 0-148 43 0 0 171z"/>
<glyph unicode="&#57660;" d="M448 405l-384 0c-23 0-43-19-43-42l0-214c0-23 20-42 43-42l384 0c23 0 43 19 43 42l0 214c0 23-20 42-43 42z m-43-256l-298 0 0 214 298 0z m-192 22l86 0c12 0 21 8 21 21l0 64c0 13-9 21-21 21l0 22c0 23-20 42-43 42-23 0-43-19-43-42l0-22c-12 0-21-8-21-21l0-64c0-13 9-21 21-21z m17 128c0 15 11 25 26 25 15 0 26-10 26-25l0-22-52 0z"/>
<glyph unicode="&#57661;" d="M213 171l86 0c12 0 21 8 21 21l0 64c0 13-9 21-21 21l0 22c0 23-20 42-43 42-23 0-43-19-43-42l0-22c-12 0-21-8-21-21l0-64c0-13 9-21 21-21z m17 128c0 15 11 25 26 25 15 0 26-10 26-25l0-22-52 0z m133 192l-214 0c-23 0-42-20-42-43l0-384c0-23 19-43 42-43l214 0c23 0 42 20 42 43l0 384c0 23-19 43-42 43z m0-384l-214 0 0 298 214 0z"/>
<glyph unicode="&#57662;" d="M497 239l-55 55-30-29 47-47-122-122-241 241 122 122 44-45 30 30-51 51c-13 13-32 13-45 0l-138-134c-13-13-13-32 0-45l256-256c12-13 32-13 44 0l137 136c13 11 13 30 2 43z m-316-164c-70 32-119 100-128 181l-32 0c11-132 122-235 254-235 4 0 9 0 15 0l-81 81z m160 245l107 0c13 0 21 9 21 21l0 86c0 12-8 21-21 21l0 11c0 30-23 53-53 53-30 0-54-23-54-53l0-11c-12 0-21-9-21-21l0-86c0-12 9-21 21-21z m17 139c0 19 17 36 37 36 19 0 36-17 36-36l0-11-73 0z"/>
<glyph unicode="&#57663;" d="M352 459c70-32 119-101 128-182l32 0c-13 133-122 235-256 235-4 0-9 0-15 0l81-81z m-134 17c-13 13-32 13-45 0l-137-137c-13-13-13-32 0-45l256-256c13-12 32-12 45 0l137 137c12 13 12 32 0 45z m98-416l-256 256 136 136 256-256z m-156-7c-70 32-119 101-128 182l-30 0c11-133 120-235 254-235 4 0 9 0 15 0l-81 81z"/>
<glyph unicode="&#57664;" d="M384 469l-171 0-128-128 0-256c0-23 20-42 43-42l256 0c23 0 43 19 43 42l0 342c0 23-20 42-43 42z m-128-128l-43 0 0 86 43 0z m64 0l-43 0 0 86 43 0z m64 0l-43 0 0 86 43 0z"/>
<glyph unicode="&#57665;" d="M384 469l-171 0-128-128 0-256c0-23 20-42 43-42l256 0c23 0 43 19 43 42l0 342c0 23-20 42-43 42z m-128-128l-43 0 0 86 43 0z m64 0l-43 0 0 86 43 0z m64 0l-43 0 0 86 43 0z"/>
<glyph unicode="&#57666;" d="M331 213l-17 0-7 7c22 23 34 55 34 89 0 77-62 139-138 139-77 0-139-62-139-139 0-76 62-138 139-138 34 0 66 12 89 34l7-7 0-17 106-106 32 32z m-128 0c-54 0-96 43-96 96 0 54 42 96 96 96 53 0 96-42 96-96 0-53-43-96-96-96z"/>
<glyph unicode="&#57667;" d="M64 405l43 0 0 43c-24 0-43-19-43-43z m0-170l43 0 0 42-43 0z m85-171l43 0 0 43-43 0z m-85 256l43 0 0 43-43 0z m213 128l-42 0 0-43 42 0z m128 0l0-43 43 0c0 24-19 43-43 43z m-298-384l0 43-43 0c0-24 19-43 43-43z m-43 85l43 0 0 43-43 0z m128 299l-43 0 0-43 43 0z m43-384l42 0 0 43-42 0z m170 171l43 0 0 42-43 0z m0-171c24 0 43 19 43 43l-43 0z m0 256l43 0 0 43-43 0z m0-171l43 0 0 43-43 0z m-85-85l43 0 0 43-43 0z m0 341l43 0 0 43-43 0z m-171-256l214 0 0 214-214 0z m43 171l128 0 0-128-128 0z"/>
<glyph unicode="&#57668;" d="M43 64l448 192-448 192 0-149 320-43-320-43z"/>
<glyph unicode="&#57669;" d="M414 235c0 6 2 12 2 21 0 9 0 15-2 21l45 37c4 4 4 8 2 12l-43 75c-2 2-6 4-13 2l-53-21c-11 8-23 15-36 21l-9 56c2 6-4 10-8 10l-86 0c-4 0-10-4-10-8l-9-58c-13-4-23-13-36-21l-51 21c-7 2-11 0-15-4l-43-75c-2-2 0-8 4-13l45-34c0-6-2-12-2-21 0-9 0-15 2-21l-45-37c-4-4-4-8-2-12l43-75c2-2 6-4 13-2l53 21c11-8 23-15 36-21l9-56c0-4 4-8 10-8l86 0c4 0 10 4 10 8l9 56c13 6 26 13 36 21l54-21c4-2 10 0 12 4l43 75c2 4 2 10-2 13z m-158-54c-41 0-75 34-75 75 0 41 34 75 75 75 41 0 75-34 75-75 0-41-34-75-75-75z"/>
<glyph unicode="&#57670;" d="M256 299c-23 0-43-20-43-43 0-23 20-43 43-43 23 0 43 20 43 43 0 23-20 43-43 43z m149 149l-298 0c-24 0-43-19-43-43l0-298c0-24 19-43 43-43l298 0c24 0 43 19 43 43l0 298c0 24-19 43-43 43z m-38-192c0-4 0-11 0-15l32-26c2-2 4-6 2-8l-30-51c-2-5-6-5-8-5l-37 15c-8-6-17-10-25-15l-7-40c0-4-4-6-6-6l-60 0c-4 0-6 2-6 6l-9 40c-8 5-17 9-25 15l-37-15c-4-2-6 0-8 5l-30 51c-2 4 0 6 2 8l32 26c0 4 0 11 0 15 0 4 0 11 0 15l-32 26c-2 2-4 6-2 8l30 51c2 5 6 5 8 5l37-15c8 4 17 10 25 15l7 40c0 4 4 6 6 6l60 0c4 0 6-2 6-6l7-40c8-5 17-9 25-15l37 15c4 2 6 0 8-5l30-51c2-4 0-6-2-8l-32-26c2-4 2-11 2-15z"/>
<glyph unicode="&#57671;" d="M235 0l42 0 0 43-42 0z m-86 0l43 0 0 43-43 0z m171 0l43 0 0 43-43 0z m58 390l-122 122-21 0 0-162-98 98-30-30 119-119-119-120 30-30 98 98 0-162 21 0 122 122-92 92z m-101 41l41-41-41-40z m41-224l-41-41 0 81z"/>
<glyph unicode="&#57672;" d="M149 0l43 0 0 43-43 0z m86 0l42 0 0 43-42 0z m85 0l43 0 0 43-43 0z m21 512l-170 0c-24 0-43-19-43-43l0-341c0-23 19-43 43-43l170 0c24 0 43 20 43 43l0 341c0 24-19 43-43 43z m0-341l-170 0 0 256 170 0z"/>
<glyph unicode="&#57673;" d="M277 320l-42 0 0-43 42 0z m86 0l-43 0 0-43 43 0z m64-139c-26 0-52 5-77 13-7 2-15 0-21-4l-47-47c-60 30-109 81-141 141l47 47c6 6 8 15 4 21-6 23-11 49-11 75 0 12-8 21-21 21l-75 0c-12 0-21-9-21-21 0-201 162-363 363-363 12 0 21 9 21 21l0 75c0 13-9 21-21 21z m-22 139l0-43 43 0 0 43z"/>
<glyph unicode="&#57674;" d="M149 0l43 0 0 43-43 0z m86 0l42 0 0 43-42 0z m42 469l-42 0 0-213 42 0z m77-51l-30-30c34-23 60-64 60-111 0-70-58-128-128-128-70 0-128 58-128 128 0 47 26 88 62 109l-32 32c-43-32-73-83-73-141 0-94 77-170 171-170 94 0 171 76 171 170 0 58-30 109-73 141z m-34-418l43 0 0 43-43 0z"/>
<glyph unicode="&#57675;" d="M149 0l43 0 0 43-43 0z m107 235c36 0 64 27 64 64l0 128c0 36-28 64-64 64-36 0-64-28-64-64l0-128c0-37 28-64 64-64z m-21-235l42 0 0 43-42 0z m85 0l43 0 0 43-43 0z m85 299l-36 0c0-64-53-109-113-109-60 0-113 45-113 109l-36 0c0-73 57-133 128-143l0-71 42 0 0 71c71 10 128 70 128 143z"/>
<glyph unicode="&#57676;" d="M448 277l-149 150 0-86c-150-21-214-128-235-234 53 74 128 108 235 108l0-87z"/>
<glyph unicode="&#57677;" d="M384 320c-17 0-32-6-43-17l-151 87c2 5 2 11 2 15 0 37-28 64-64 64-36 0-64-27-64-64 0-36 28-64 64-64 17 0 32 7 43 17l151-87c-2-4-2-11-2-15 0-4 0-11 2-15l-151-90c-11 11-26 18-43 18-34 0-62-28-62-62 0-34 28-62 62-62 34 0 62 28 62 62 0 4 0 8-2 15l151 89c11-10 26-17 43-17 36 0 64 28 64 64 0 36-26 62-62 62z"/>
<glyph unicode="&#57678;" d="M367 320l-94 141c-4 4-11 8-17 8-6 0-13-2-17-8l-94-141-102 0c-13 0-22-9-22-21 0-2 0-5 0-7l54-198c4-17 21-32 40-32l278 0c19 0 36 13 40 32l53 198c0 2 0 5 0 7 0 12-8 21-21 21z m-175 0l64 94 64-94z m64-171c-23 0-43 20-43 43 0 23 20 43 43 43 23 0 43-20 43-43 0-23-20-43-43-43z"/>
<glyph unicode="&#57679;" d="M149 128c-23 0-42-19-42-43 0-23 19-42 42-42 24 0 43 19 43 42 0 24-19 43-43 43z m-128 341l0-42 43 0 77-162-30-52c-2-6-4-15-4-21 0-23 19-43 42-43l256 0 0 43-247 0c-2 0-4 2-4 4 0 0 0 2 0 2l19 37 158 0c17 0 30 8 36 21l77 139c4 4 4 6 4 10 0 13-9 22-21 22l-316 0-19 42z m342-341c-24 0-43-19-43-43 0-23 19-42 43-42 23 0 42 19 42 42 0 24-19 43-42 43z"/>
<glyph unicode="&#57680;" d="M226 316l-111 111-30-30 111-111z m83 111l43-43-267-269 30-30 269 267 43-43 0 118z m7-201l-30-30 66-66-43-43 118 0 0 118-43-43z"/>
<glyph unicode="&#57681;" d="M43 43l426 0 0 426z m384 42l-186 0 0 96 186 186z"/>
<glyph unicode="&#57682;" d="M43 43l426 0 0 426z m384 42l-128 0 0 154 128 128z"/>
<glyph unicode="&#57683;" d="M43 43l426 0 0 426z m384 42l-71 0 0 209 71 73z"/>
<glyph unicode="&#57684;" d="M43 43l426 0 0 426z"/>
<glyph unicode="&#57685;" d="M256 469c-96 0-186-32-256-85l256-341 256 341c-70 53-160 85-256 85z m0-241c-26 0-51-6-75-15l-119 160c57 34 124 54 194 54 70 0 137-20 194-54l-121-162c-22 11-47 17-73 17z"/>
<glyph unicode="&#57686;" d="M256 469c-96 0-186-32-256-85l256-341 256 341c-70 53-160 85-256 85z m0-170c-43 0-81-11-117-28l-77 102c57 34 124 54 194 54 70 0 137-20 194-54l-77-104c-36 19-74 30-117 30z"/>
<glyph unicode="&#57687;" d="M256 469c-96 0-186-32-256-85l256-341 256 341c-70 53-160 85-256 85z m0-113c-55 0-107-15-151-40l-43 57c57 34 124 54 194 54 70 0 137-20 194-54l-43-57c-44 25-96 40-151 40z"/>
<glyph unicode="&#57688;" d="M256 469c-96 0-186-32-256-85l256-341 256 341c-70 53-160 85-256 85z"/>
<glyph unicode="&#57689;" d="M384 469l-171 0-128-128 0-256c0-23 20-42 43-42l256 0c23 0 43 19 43 42l0 342c0 23-20 42-43 42z m-107-320l-42 0 0 43 42 0z m0 86l-42 0 0 106 42 0z"/>
<glyph unicode="&#57690;" d="M128 128l181 128-181 128z m213 256l0-256 43 0 0 256z"/>
<glyph unicode="&#57691;" d="M128 384l43 0 0-256-43 0z m75-128l181-128 0 256z"/>
<glyph unicode="&#57692;" d="M213 341l0-170 107 85z m192 107l-298 0c-24 0-43-19-43-43l0-298c0-24 19-43 43-43l298 0c24 0 43 19 43 43l0 298c0 24-19 43-43 43z m0-341l-298 0 0 298 298 0z"/>
<glyph unicode="&#57693;" d="M427 469l-342 0c-23 0-42-19-42-42l0-384 85 85 299 0c23 0 42 19 42 43l0 256c0 23-19 42-42 42z m-235-192l-43 0 0 43 43 0z m85 0l-42 0 0 43 42 0z m86 0l-43 0 0 43 43 0z"/>
<glyph unicode="&#57694;" d="M427 469l-342 0c-23 0-42-19-42-42l0-384 85 85 299 0c23 0 42 19 42 43l0 256c0 23-19 42-42 42z m-150-256l-42 0 0 43 42 0z m0 86l-42 0 0 85 42 0z"/>
<glyph unicode="&#57695;" d="M64 128l128 0 0 43-128 0z m0 256l0-43 384 0 0 43z m0-149l256 0 0 42-256 0z"/>
<glyph unicode="&#57696;" d="M363 469l-214 0c-23 0-42-19-42-42l0-342c0-23 19-42 42-42l214 0c23 0 42 19 42 42l0 342c0 23-19 42-42 42z m-107-42c23 0 43-20 43-43 0-23-20-43-43-43-23 0-43 20-43 43 0 23 20 43 43 43z m0-342c-60 0-107 47-107 107 0 60 47 107 107 107 60 0 107-47 107-107 0-60-47-107-107-107z m0 171c-36 0-64-28-64-64 0-36 28-64 64-64 36 0 64 28 64 64 0 36-28 64-64 64z"/>
<glyph unicode="&#57697;" d="M256 144l132-80-35 150 116 101-153 13-60 141-60-141-153-13 116-101-35-150z"/>
<glyph unicode="&#57698;" d="M469 304l-153 13-60 142-60-142-153-13 116-101-35-150 132 80 132-80-35 150z m-213-131l0 198 36-86 94-8-71-61 21-92z"/>
<glyph unicode="&#57699;" d="M469 315l-153 13-60 141-60-141-153-13 116-101-35-150 132 80 132-80-35 150z m-213-131l-80-49 21 91-71 62 94 8 36 86 36-86 94-8-71-62 21-91z"/>
<glyph unicode="&#57700;" d="M256 207l79-58-30 94 79 56-96 0-32 96-32-96-96 0 79-56-30-94z"/>
<glyph unicode="&#57701;" d="M128 384l256 0 0-256-256 0z"/>
<glyph unicode="&#57702;" d="M43 107l426 0 0 85-426 0z m42 64l43 0 0-43-43 0z m-42 234l0-85 426 0 0 85z m85-64l-43 0 0 43 43 0z m-85-128l426 0 0 86-426 0z m42 64l43 0 0-42-43 0z"/>
<glyph unicode="&#57703;" d="M427 427l-342 0 0-43 342 0z m21-214l0 43-21 107-342 0-21-107 0-43 21 0 0-128 214 0 0 128 85 0 0-128 43 0 0 128z m-192-85l-128 0 0 85 128 0z"/>
<glyph unicode="&#57704;" d="M171 181c0-17-15-32-32-32-18 0-32 15-32 32 0 18 14 32 32 32 17 0 32-14 32-32z m234 0c0-17-14-32-32-32-17 0-32 15-32 32 0 18 15 32 32 32 18 0 32-14 32-32z m-2 182c-4 12-17 21-30 21l-245 0 0 43-64-64 64-64 0 42 250 0 27-85-341 0 0-192c0-13 9-21 21-21l22 0c12 0 21 8 21 21l0 21 256 0 0-21c0-13 9-21 21-21l22 0c12 0 21 8 21 21l0 171z m-264-214c-17 0-32 15-32 32 0 17 15 32 32 32 17 0 32-15 32-32 0-17-15-32-32-32z m234 0c-17 0-32 15-32 32 0 17 15 32 32 32 17 0 32-15 32-32 0-17-15-32-32-32z m-32 363l0-43-170 0 0-42 170 0 0-43 64 64z"/>
<glyph unicode="&#57705;" d="M149 277l-85-85 85-85 0 64 150 0 0 42-150 0z m299 43l-85 85 0-64-150 0 0-42 150 0 0-64z"/>
<glyph unicode="&#57706;" d="M341 149l0 150-42 0 0-150-64 0 85-85 85 85z m-149 299l-85-85 64 0 0-150 42 0 0 150 64 0z"/>
<glyph unicode="&#57707;" d="M256 469c-117 0-213-96-213-213 0-117 96-213 213-213 117 0 213 96 213 213 0 117-96 213-213 213z m-117-149l74 75 75-75-53 0 0-85-43 0 0 85z m234-128l-74-75-75 75 53 0 0 85 43 0 0-85z"/>
<glyph unicode="&#57708;" d="M427 427l-69 0-38 42-128 0-38-42-69 0c-23 0-42-20-42-43l0-256c0-23 19-43 42-43l342 0c23 0 42 20 42 43l0 256c0 23-19 43-42 43z m-239-150c0-38 30-68 68-68 38 0 68 30 68 68l-36 0 53 54 54-54-32 0c0-59-47-106-107-106-60 0-107 47-107 106z"/>
<glyph unicode="&#57709;" d="M384 309l0 75c0 13-9 21-21 21l-299 0c-13 0-21-8-21-21l0-256c0-13 8-21 21-21l299 0c12 0 21 8 21 21l0 75 85-86 0 278z m-239-32c0-32 26-57 58-57 32 0 57 25 57 57l-36 0 53 54 54-54-32 0c0-53-43-96-96-96-54 0-96 43-96 96z"/>
<glyph unicode="&#57710;" d="M256 427l0 64-85-86 85-85 0 64c70 0 128-58 128-128 0-21-6-43-15-60l32-32c15 28 26 58 26 92 0 94-77 171-171 171z m0-299c-70 0-128 58-128 128 0 21 6 43 15 60l-32 32c-15-28-26-58-26-92 0-94 77-171 171-171l0-64 85 86-85 85z"/>
<glyph unicode="&#57711;" d="M213 378l0 42c-17-4-32-10-47-21l32-32c5 4 9 8 15 11z m-151 19l51-51c-17-26-28-56-28-90 0-47 20-90 52-119l-52-52 128 0 0 128-47-47c-23 22-38 54-38 90 0 21 4 41 15 60l173-173c-5-2-11-4-17-6l0-45c17 4 32 10 47 21l51-51 28 28-338 335z m365 30l-128 0 0-128 47 47c23-22 38-54 38-90 0-21-4-41-15-60l32-32c15 28 26 58 26 92 0 47-20 90-52 119z"/>
<glyph unicode="&#57712;" d="M85 256c0-47 20-90 52-119l-52-52 128 0 0 128-47-47c-23 22-38 54-38 90 0 55 36 102 85 122l0 42c-72-19-128-85-128-164z m342 171l-128 0 0-128 47 47c23-22 38-54 38-90 0-55-36-102-85-122l0-44c72 19 128 85 128 164 0 47-20 89-52 119z"/>
<glyph unicode="&#57713;" d="M64 256c0-47 19-90 51-119l-51-52 128 0 0 128-47-47c-23 22-38 54-38 90 0 55 36 102 85 122l0 42c-73-19-128-85-128-164z m171-107l42 0 0 43-42 0z m213 278l-128 0 0-128 47 47c23-22 38-54 38-90 0-55-36-102-85-122l0-44c73 19 128 85 128 164 0 47-19 89-51 119z m-213-192l42 0 0 128-42 0z"/>
<glyph unicode="&#57714;" d="M64 256c0-47 19-90 51-119l-51-52 128 0 0 128-47-47c-23 22-38 54-38 90 0 55 36 102 85 122l0 42c-73-19-128-85-128-164z m171-107l42 0 0 43-42 0z m213 278l-128 0 0-128 47 47c23-22 38-54 38-90 0-55-36-102-85-122l0-44c73 19 128 85 128 164 0 47-19 89-51 119z m-213-192l42 0 0 128-42 0z"/>
<glyph unicode="&#57715;" d="M363 491l-214 0c-23 0-42-20-42-43l0-384c0-23 19-43 42-43l214 0c23 0 42 20 42 43l0 384c0 23-19 43-42 43z m0-384l-214 0 0 298 214 0z m-22 128l-64 0 0 106-42 0 0-106-64 0 85-86z"/>
<glyph unicode="&#57716;" d="M405 448l-298 0c-24 0-43-19-43-43l0-298c0-24 19-43 43-43l298 0c24 0 43 19 43 43l0 298c0 24-19 43-43 43z m0-341l-298 0 0 298 149 0 0-85 149 0z"/>
<glyph unicode="&#57717;" d="M64 320l43 0 0 43-43 0z m0-85l43 0 0 42-43 0z m0 170l43 0 0 43c-24 0-43-19-43-43z m85-341l43 0 0 43-43 0z m-85 85l43 0 0 43-43 0z m43-85l0 43-43 0c0-24 19-43 43-43z m298 384l-170 0 0-128 213 0 0 85c0 24-19 43-43 43z m0-299l43 0 0 43-43 0z m-256 256l43 0 0 43-43 0z m256-341c24 0 43 19 43 43l-43 0z m0 171l43 0 0 42-43 0z m-170-171l42 0 0 43-42 0z m85 0l43 0 0 43-43 0z"/>
<glyph unicode="&#57718;" d="M448 427l-384 0c-23 0-43-20-43-43l0-256c0-23 20-43 43-43l384 0c23 0 43 20 43 43l0 256c0 23-20 43-43 43z m-43-299l-298 0 0 256 298 0z"/>
<glyph unicode="&#57719;" d="M363 277c12 0 21 9 21 22 0 12-9 21-21 21-13 0-22-9-22-21 0-13 9-22 22-22z m-43-106c41 0 73 27 81 64l-162 0c8-37 40-64 81-64z m-43 106c13 0 22 9 22 22 0 12-9 21-22 21-12 0-21-9-21-21 0-13 9-22 21-22z m192 171l-307 0c-13 0-25-6-34-17l-128-175 128-175c9-11 21-17 34-17l307 0c24 0 43 19 43 43l0 298c0 24-19 43-43 43z m-384-213c-12 0-21 8-21 21 0 13 9 21 21 21 13 0 22-8 22-21 0-13-9-21-22-21z m235-107c-70 0-128 58-128 128 0 70 58 128 128 128 70 0 128-58 128-128 0-70-58-128-128-128z"/>
<glyph unicode="&#57720;" d="M43 171l0-43c59 0 106-47 106-107l43 0c0 84-66 150-149 150z m0-86l0-64 64 0c0 37-28 64-64 64z m0 171l0-43c106 0 192-85 192-192l42 0c0 130-104 235-234 235z m320 235l-214 0c-23 0-42-20-42-43l0-158c15-4 30-8 42-13l0 128 214 0 0-277-64 0c10-26 17-55 19-85l45 0c23 0 42 19 42 42l0 363c0 23-19 43-42 43z"/>
<glyph unicode="&#57721;" d="M299 384l-81-107 61-81-34-25c-36 47-96 128-96 128l-128-171 470 0z"/>
<glyph unicode="&#57722;" d="M107 149l0-42 298 0 0 42z m96 90l106 0 20-47 44 0-100 235-32 0-102-235 44 0z m53 145l41-107-79 0z"/>
<glyph unicode="&#57723;" d="M427 469l-342 0c-23 0-42-19-42-42l0-384 85 85 299 0c23 0 42 19 42 43l0 256c0 23-19 42-42 42z m-235-192l-43 0 0 43 43 0z m85 0l-42 0 0 43 42 0z m86 0l-43 0 0 43 43 0z"/>
<glyph unicode="&#57724;" d="M384 448l0-43-43 0 0 43-170 0 0-43-43 0 0 43-43 0 0-384 43 0 0 43 43 0 0-43 170 0 0 43 43 0 0-43 43 0 0 384z m-213-299l-43 0 0 43 43 0z m0 86l-43 0 0 42 43 0z m0 85l-43 0 0 43 43 0z m213-171l-43 0 0 43 43 0z m0 86l-43 0 0 42 43 0z m0 85l-43 0 0 43 43 0z"/>
<glyph unicode="&#57725;" d="M320 448l-192 0c-17 0-32-11-38-26l-64-151c-3-4-5-9-5-15l0-41c0 0 0-2 0-2 0-23 20-42 43-42l134 0-21-98c0-3 0-5 0-7 0-8 4-17 9-23l23-22 141 141c8 9 13 19 13 30l0 213c0 24-20 43-43 43z m85 0l0-256 86 0 0 256z"/>
<glyph unicode="&#57726;" d="M21 64l86 0 0 256-86 0z m470 235c0 23-20 42-43 42l-134 0 21 98c0 3 0 5 0 7 0 8-4 17-9 23l-23 22-141-141c-8-7-13-17-13-30l0-213c0-24 20-43 43-43l192 0c17 0 32 11 38 26l64 151c3 4 3 11 3 15l0 43 2 0c0-2 0 0 0 0z"/>
<glyph unicode="&#57727;" d="M403 405c-4 13-17 22-30 22l-234 0c-15 0-26-9-30-22l-45-128 0-170c0-13 9-22 21-22l22 0c12 0 21 9 21 22l0 21 256 0 0-21c0-13 9-22 21-22l22 0c12 0 21 9 21 22l0 170z m-264-213c-17 0-32 15-32 32 0 17 15 32 32 32 17 0 32-15 32-32 0-17-15-32-32-32z m234 0c-17 0-32 15-32 32 0 17 15 32 32 32 17 0 32-15 32-32 0-17-15-32-32-32z m-266 107l32 96 234 0 32-96z"/>
<glyph unicode="&#57728;" d="M346 346c-24 25-58 38-90 38l0-128-90-90c49-49 131-49 182 0 49 49 49 131-2 180z m-90 123c-117 0-213-96-213-213 0-117 96-213 213-213 117 0 213 96 213 213 0 117-96 213-213 213z m0-384c-94 0-171 77-171 171 0 94 77 171 171 171 94 0 171-77 171-171 0-94-77-171-171-171z"/>
<glyph unicode="&#57729;" d="M320 491l-128 0 0-43 128 0z m-85-278l42 0 0 128-42 0z m170 141l32 30c-10 11-21 21-32 30l-30-30c-32 26-74 43-119 43-107 0-192-86-192-192 0-107 85-192 192-192 107 0 192 85 192 192 0 44-15 87-43 119z m-149-269c-83 0-149 66-149 150 0 83 66 149 149 149 83 0 149-66 149-149 0-84-66-150-149-150z"/>
<glyph unicode="&#57730;" d="M405 448l-21 0 0 43-43 0 0-43-170 0 0 43-43 0 0-43-21 0c-24 0-43-19-43-43l0-298c0-24 19-43 43-43l298 0c24 0 43 19 43 43l0 298c0 24-19 43-43 43z m0-341l-298 0 0 234 298 0z m-256 192l107 0 0-107-107 0z"/>
<glyph unicode="&#57731;" d="M427 299l-64 0 0 23c36 9 64 43 64 83l-64 0 0 22c0 12-9 21-22 21l-170 0c-13 0-22-9-22-21l0-22-64 0c0-40 28-72 64-83l0-23-64 0c0-41 28-73 64-84l0-23-64 0c0-41 28-73 64-83l0-24c0-12 9-21 22-21l170 0c13 0 22 9 22 21l0 24c36 8 64 42 64 83l-64 0 0 23c36 11 64 43 64 84z m-171-192c-23 0-43 19-43 42 0 24 20 43 43 43 23 0 43-19 43-43 0-23-20-42-43-42z m0 106c-23 0-43 20-43 43 0 23 20 43 43 43 23 0 43-20 43-43 0-23-20-43-43-43z m0 107c-23 0-43 19-43 43 0 23 20 42 43 42 23 0 43-19 43-42 0-24-20-43-43-43z"/>
<glyph unicode="&#57732;" d="M64 145l0-81 81 0 235 237-81 81z m378 218c8 8 8 21 0 30l-49 49c-9 8-22 8-30 0l-39-39 81-81z m-186-256l-43-43 278 0 0 43z"/>
<glyph unicode="&#57733;" d="M427 448l-342 0c-23 0-42-19-42-43l0-256c0-23 19-42 42-42l86 0 0-43 170 0 0 43 86 0c23 0 42 19 42 42l0 256c0 24-19 43-42 43z m0-299l-342 0 0 256 342 0z"/>
<glyph unicode="&#57734;" d="M256 149c71 0 128 58 128 128l0 171-53 0 0-171c0-41-34-74-75-74-41 0-75 33-75 74l0 171-53 0 0-171c0-70 57-128 128-128z m-149-85l298 0 0 43-298 0z"/>
<glyph unicode="&#57735;" d="M256 405l0 75-107-107 107-106 0 96c70 0 128-58 128-128 0-71-58-128-128-128-70 0-128 57-128 128l-43 0c0-94 77-171 171-171 94 0 171 77 171 171 0 94-77 170-171 170z"/>
<glyph unicode="&#57736;" d="M158 115l30-30 68 69 68-69 30 30-98 98z m196 282l-30 30-68-69-68 69-30-30 98-98z"/>
<glyph unicode="&#57737;" d="M256 388l68-68 30 30-98 98-98-98 30-30z m0-264l-68 68-30-30 98-98 98 98-30 30z"/>
<glyph unicode="&#57738;" d="M405 448l-298 0c-24 0-43-19-43-43l0-298c0-24 19-43 43-43l298 0c24 0 43 19 43 43l0 298c0 24-19 43-43 43z m-288-96l43 0 0 43 32 0 0-43 43 0 0-32-43 0 0-43-32 0 0 43-43 0z m288-245l-298 0 298 298z m-42 42l0 32-107 0 0-32z"/>
<glyph unicode="&#57739;" d="M277 341l-42 0 0-64-64 0 0-42 64 0 0-64 42 0 0 64 64 0 0 42-64 0z m-21 128c-117 0-213-96-213-213 0-117 96-213 213-213 117 0 213 96 213 213 0 117-96 213-213 213z m0-384c-94 0-171 77-171 171 0 94 77 171 171 171 94 0 171-77 171-171 0-94-77-171-171-171z"/>
<glyph unicode="&#57740;" d="M256 469c-117 0-213-96-213-213 0-117 96-213 213-213 117 0 213 96 213 213 0 117-96 213-213 213z m0-384c-94 0-171 77-171 171 0 94 77 171 171 171 94 0 171-77 171-171 0-94-77-171-171-171z m-85 150l170 0 0 42-170 0z"/>
<glyph unicode="&#57741;" d="M256 299l-171 0 0-43 171 0z m0 170l0-42c94 0 171-77 171-171 0-94-77-171-171-171-47 0-90 20-122 49l-29-29c38-39 91-62 151-62 117 0 213 96 213 213 0 117-96 213-213 213z"/>
<glyph unicode="&#57742;" d="M341 299l-42 0 0-43 42 0z m0-86l-42 0 0-42 42 0z m-170 86l-43 0 0-43 43 0z m85 0l-43 0 0-43 43 0z m171 128l-342 0c-23 0-42-20-42-43l0-256c0-23 19-43 42-43l342 0c23 0 42 20 42 43l0 256c0 23-19 43-42 43z m0-299l-342 0 0 256 342 0z"/>
<glyph unicode="&#57743;" d="M299 171l106 0 0 106 64 0-117 118-117-118 64 0z m-64-86l234 0 0 43-234 0z m-118 278l-68-192 41 0 15 42 68 0 15-42 40 0-68 192z m-2-120l24 77 23-77z"/>
<glyph unicode="&#57744;" d="M256 171l107 0 0 32-107 0z m0 298c-117 0-213-96-213-213 0-117 96-213 213-213 117 0 213 96 213 213 0 117-96 213-213 213z m-128-128l43 0 0 43 32 0 0-43 42 0 0-32-42 0 0-42-32 0 0 42-43 0z m128-256c-47 0-90 20-122 49l244 244c29-32 49-75 49-122 0-94-77-171-171-171z"/>
<glyph unicode="&#57745;" d="M320 363l0-86 21 0 0-42-64 0 0 170 43 0-64 86-64-86 43 0 0-170-64 0 0 44c15 7 25 24 25 41 0 26-21 47-47 47-25 0-47-21-47-47 0-17 11-34 26-41l0-44c0-24 19-43 43-43l64 0 0-66c-15-9-26-24-26-41 0-25 21-47 47-47 26 0 47 22 47 47 0 20-11 34-26 41l0 66 64 0c24 0 43 19 43 43l0 42 21 0 0 86z"/>
<glyph unicode="&#57746;" d="M0 192l43 0 0 128-43 0z m64-43l43 0 0 214-43 0z m405 171l0-128 43 0 0 128z m-64-171l43 0 0 214-43 0z m-53 299l-192 0c-17 0-32-15-32-32l0-320c0-17 15-32 32-32l192 0c17 0 32 15 32 32l0 320c0 17-15 32-32 32z m-11-341l-170 0 0 298 170 0z"/>
</font>
</defs>
</svg>
